<?xml version="1.0" encoding="utf-8"?><svg xmlns="http://www.w3.org/2000/svg" xmlns:xlink="http://www.w3.org/1999/xlink"><symbol fill="none" viewBox="0 0 12 12" id="arrow" xmlns="http://www.w3.org/2000/svg"><path fill-rule="evenodd" clip-rule="evenodd" d="M10.5 1zm-.414 0H0V0h11.5v11.5h-1V2L1 11.5l-.707-.707L10.086 1z" fill="#000"/></symbol><symbol fill="none" viewBox="0 0 24 24" id="arrow-right" xmlns="http://www.w3.org/2000/svg"><path fill-rule="evenodd" clip-rule="evenodd" d="M18.573 11.5l-7.425-7.424.707-.707 8.132 8.132-8.131 8.132-.708-.707 7.425-7.425z" fill="#91919E"/><path fill-rule="evenodd" clip-rule="evenodd" d="M15.957 12H4.43v-1h11.527v1z" fill="#91919E"/></symbol><symbol fill="none" viewBox="0 0 24 24" id="calendar" xmlns="http://www.w3.org/2000/svg"><path fill-rule="evenodd" clip-rule="evenodd" d="M8 6H6V5H4v3h16V5h-2v1h-2V5H8v1zm12 4H4v10h16V10zm-4-7H8V2H6v1H4a2 2 0 00-2 2v15a2 2 0 002 2h16a2 2 0 002-2V5a2 2 0 00-2-2h-2V2h-2v1zM7 14v-2h2v2H7zm4 0h2v-2h-2v2zm4 0v-2h2v2h-2zm-8 2v2h2v-2H7zm6 2h-2v-2h2v2z" fill="#22223C"/></symbol><symbol viewBox="0 0 24 24" id="link" xmlns="http://www.w3.org/2000/svg"><path fill-rule="evenodd" clip-rule="evenodd" d="M16 7H6V5h12v12h-2V7z"/><path fill-rule="evenodd" clip-rule="evenodd" d="M14.29 10.093l-6.89 6.89-1.414-1.414 6.89-6.89 1.415 1.414z"/></symbol><symbol viewBox="0 0 24 24" fill="none" stroke="#111" stroke-width="2" stroke-linecap="round" stroke-linejoin="round" id="menu" xmlns="http://www.w3.org/2000/svg"><path d="M3 12h18M3 6h18M3 18h18"/></symbol></svg>