<svg xmlns="http://www.w3.org/2000/svg" width="356" height="127">
  <path d="M103 67.5h59.6v59.4H103zM103 0h59.6v9.1H103z" fill="#e20019" />
  <path d="M0 32.1C0 15.4 12.7 3.9 29.1 3.9c12 0 19 6.6 22.9 13.3l-10 5c-2.3-4.5-7.3-8-12.9-8-9.9 0-17.1 7.6-17.1 17.9s7.2 18 17.1 18c5.6 0 10.6-3.5 12.9-8l10 4.8c-4 6.8-10.9 13.5-22.9 13.5C12.7 60.4 0 48.9 0 32.1z" />
  <path fill-rule="evenodd" d="M55.6 39.6c0-11.2 7.9-20.7 20.9-20.7 13.1 0 21 9.5 21 20.7 0 11.3-7.9 20.8-21 20.8-13 0-20.9-9.5-20.9-20.8zm31.1 0c0-6.2-3.7-11.5-10.2-11.5s-10.1 5.3-10.1 11.5S70 51.1 76.5 51.1s10.2-5.3 10.2-11.5z" />
  <path d="M152.1 59.4v-25c0-3.7-1.6-6.3-5.9-6.3-3.7 0-6.7 2.5-8.2 4.6v26.7h-10.5v-25c0-3.7-1.6-6.3-5.9-6.3-3.6 0-6.6 2.5-8.2 4.7v26.6H103V19.9h10.4V25c1.7-2.4 6.9-6.1 13-6.1 5.8 0 9.5 2.7 11 7.2 2.3-3.6 7.5-7.2 13.6-7.2 7.3 0 11.6 3.8 11.6 11.9v28.6z" />
  <path fill-rule="evenodd" d="M179.4 54.3v20.1H169V19.9h10.4v5c3-3.9 7.4-6 12.2-6 10.2 0 17.5 7.5 17.5 20.7s-7.3 20.8-17.5 20.8c-4.7 0-9-2-12.2-6.1zm18.9-14.7c0-6.8-4-11.5-10-11.5-3.3 0-7.2 2-8.9 4.5v14c1.7 2.5 5.6 4.5 8.9 4.5 6 0 10-4.6 10-11.5z" />
  <path d="M241.3 59.4v-5c-2.7 3-7.4 6-13.9 6-8.7 0-12.8-4.8-12.8-12.5v-28H225v23.9c0 5.5 2.9 7.3 7.3 7.3 4 0 7.2-2.2 9-4.5V19.9h10.4v39.5zm22.7-9.8V28.9h-6.6v-9h6.6V9.1h10.5v10.8h8v9h-8v17.9c0 2.4 1.3 4.3 3.6 4.3 1.5 0 3-.6 3.6-1.1l2.2 7.8c-1.6 1.4-4.3 2.6-8.7 2.6-7.3 0-11.2-3.8-11.2-10.8z" />
  <path fill-rule="evenodd" d="M286.8 39.6c0-11.5 8.4-20.7 20.5-20.7 11.8 0 19.8 8.8 19.8 21.7v2.3h-29.4c.6 5 4.7 9.2 11.4 9.2 3.3 0 8-1.5 10.5-3.9l4.6 6.7c-3.9 3.6-10.1 5.5-16.3 5.5-12 0-21.1-8.1-21.1-20.8zm20.5-12.5c-6.5 0-9.3 4.9-9.8 8.8H317c-.2-3.8-2.8-8.8-9.7-8.8z" />
  <path d="M332.7 59.4V19.9h10.4v5.4c2.8-3.6 7.7-6.4 12.6-6.4V29a20.28 20.28 0 0 0-2.8-.2c-3.5 0-8.1 1.9-9.8 4.5v26.1z" />
  <g fill="#fff">
    <path d="M109 116.2V73.4h5.9v16.4h2.4V73.4h5.7v42.8h-5.7V95.4h-2.4v20.8zm31.5-34.3h6.5l1.5 10.8c.6 5.1.9 10.2 1.1 14.6h.2c.4-4 .4-9.3 1.1-13.5l1.5-11.9h6.5l-5.8 34.5c-.8 4.8-1.7 5.3-7.2 5.3h-4.1v-4.3h2c2 0 2.3-.9 2.3-1.9 0-1.7-.8-4.8-1-6.7z" />
    <path fill-rule="evenodd" d="M139.4 83.8v30.5c0 1.9-2.7 1.9-2.7 1.9H128c-2.6 0-2.6-1.9-2.6-1.9V83.8c0-2 2.6-2 2.6-2h8.7c2.7 0 2.7 2 2.7 2zm-8.2 28.3h2.4V86h-2.4z" />
  </g>
</svg>