<svg id="Capa_1" data-name="Capa 1" xmlns="http://www.w3.org/2000/svg" viewBox="0 0 281.05 63.9"><defs><style>.cls-1{fill:none;}.cls-2{clip-path:url(#clip-path);}</style><clipPath id="clip-path" transform="translate(0 0)"><rect class="cls-1" width="63.9" height="63.9"/></clipPath></defs><g class="cls-2"><path d="M38.42,11.18H55.25V52.47H44.7V21.52l-7.91,31H27.26l-7.9-30.95v31H8.82V11.18H25.66L32.06,36ZM.06,63.84H63.84V.06H.06Z" transform="translate(0 0)"/><path d="M38.47,11.24H55.19V52.41H44.77V21l-8,31.4H27.31L19.3,21v31.4H8.88V11.24H25.61l6.45,25Zm16.72-.13H38.37l0,.1L32.06,35.77,25.73,11.21l0-.1h-17V52.53H19.43V22l7.76,30.41,0,.09h9.63l0-.09L44.64,22v30.5H55.31V11.11ZM.13.13H63.77V63.77H.13ZM0,63.9H63.9V0H0Z" transform="translate(0 0)"/></g><rect x="68.76" y="0.5" width="3.36" height="62.9"/><path d="M71.61,1V62.9H69.26V1h2.35m1-1H68.26V63.9h4.35V0Z" transform="translate(0 0)"/><path d="M78.05,17.36h8.87l3.43,13.29,3.39-13.29h8.87V39.19H97.08V22.54L92.83,39.19h-5L83.58,22.54V39.19H78.05Z" transform="translate(0 0)"/><path d="M120.33,35.59h-7.65l-1.07,3.6h-6.89l8.21-21.83h7.36l8.2,21.83h-7.06Zm-1.39-4.72L116.53,23l-2.39,7.85Z" transform="translate(0 0)"/><path d="M130.64,17.36h6.74V33.82h10.53v5.37H130.64Z" transform="translate(0 0)"/><path d="M151.07,17.36h10a12,12,0,0,1,4.79.81,7.66,7.66,0,0,1,3,2.31A9.45,9.45,0,0,1,170.62,24a16.13,16.13,0,0,1,.53,4.23,14.69,14.69,0,0,1-.79,5.43,9,9,0,0,1-2.21,3.23,7.3,7.3,0,0,1-3,1.74,15.5,15.5,0,0,1-4,.59h-10Zm6.74,4.95V34.23h1.65a7,7,0,0,0,3-.46,3.16,3.16,0,0,0,1.4-1.64,10.25,10.25,0,0,0,.51-3.79c0-2.32-.38-3.9-1.13-4.75a4.78,4.78,0,0,0-3.75-1.28Z" transform="translate(0 0)"/><path d="M175,17.36h6.76V39.19H175Z" transform="translate(0 0)"/><path d="M185,17.36h20.51v5.39h-6.88V39.19h-6.75V22.75H185Z" transform="translate(0 0)"/><path d="M219.94,35.59h-7.66l-1.06,3.6h-6.89l8.21-21.83h7.36l8.2,21.83H221Zm-1.4-4.72L216.13,23l-2.38,7.85Z" transform="translate(0 0)"/><path d="M229.86,33.12h6.47v6.07h-6.47Z" transform="translate(0 0)"/><path d="M240.38,17.36h18.08V22H247.14v3.47h10.5V30h-10.5v4.3h11.65v4.94H240.38Z" transform="translate(0 0)"/><path d="M261.25,32l6.42-.4a4.85,4.85,0,0,0,.84,2.38,3.59,3.59,0,0,0,3,1.33,3.3,3.3,0,0,0,2.23-.68,2,2,0,0,0,0-3.09,8.64,8.64,0,0,0-3.46-1.27A14.64,14.64,0,0,1,264,27.59a5.31,5.31,0,0,1-1.9-4.21,5.73,5.73,0,0,1,1-3.18A6.46,6.46,0,0,1,266,17.85a13.74,13.74,0,0,1,5.37-.86,10.94,10.94,0,0,1,6.38,1.56,6.68,6.68,0,0,1,2.62,4.95l-6.36.37a3,3,0,0,0-3.31-2.81,2.73,2.73,0,0,0-1.77.49,1.53,1.53,0,0,0-.59,1.22,1.21,1.21,0,0,0,.49.94,5.63,5.63,0,0,0,2.26.8,28.66,28.66,0,0,1,6.34,1.93,6.7,6.7,0,0,1,2.78,2.42,6.13,6.13,0,0,1,.87,3.23A6.87,6.87,0,0,1,279.89,36a7.26,7.26,0,0,1-3.25,2.69,13.1,13.1,0,0,1-5.25.92q-5.58,0-7.72-2.15A8.46,8.46,0,0,1,261.25,32Z" transform="translate(0 0)"/><path d="M78,41.13h3.19a2.2,2.2,0,0,1,1.56.49A1.88,1.88,0,0,1,83.24,43a1.9,1.9,0,0,1-.57,1.47A2.46,2.46,0,0,1,81,45h-1v2.3H78Zm1.93,2.64h.47a1.2,1.2,0,0,0,.78-.19.61.61,0,0,0,.22-.49.74.74,0,0,0-.19-.5,1.06,1.06,0,0,0-.74-.2H79.9Z" transform="translate(0 0)"/><path d="M84.23,41.13h5.14v1.32H86.15v1h3V44.7h-3v1.22h3.31v1.41H84.23Z" transform="translate(0 0)"/><path d="M90.52,47.33v-6.2h3.19a4.67,4.67,0,0,1,1.36.15,1.43,1.43,0,0,1,.76.56,1.74,1.74,0,0,1,.29,1,1.8,1.8,0,0,1-.22.89,1.78,1.78,0,0,1-.61.61,2.44,2.44,0,0,1-.67.24,2,2,0,0,1,.5.23,1.75,1.75,0,0,1,.3.33,1.72,1.72,0,0,1,.27.38l.93,1.8H94.45l-1-1.9a1.47,1.47,0,0,0-.35-.48.82.82,0,0,0-.47-.14h-.16v2.52Zm1.93-3.69h.8a2.7,2.7,0,0,0,.51-.09.48.48,0,0,0,.31-.19.63.63,0,0,0-.07-.82,1.12,1.12,0,0,0-.71-.16h-.84Z" transform="translate(0 0)"/><path d="M97.31,41.13h1.92v6.2H97.31Z" transform="translate(0 0)"/><path d="M100.36,44.23a3.2,3.2,0,0,1,.85-2.36,3.16,3.16,0,0,1,2.36-.85,3.25,3.25,0,0,1,2.38.83,3.14,3.14,0,0,1,.84,2.33,3.7,3.7,0,0,1-.37,1.78,2.57,2.57,0,0,1-1,1.09,3.6,3.6,0,0,1-1.73.38,4,4,0,0,1-1.73-.33A2.59,2.59,0,0,1,100.79,46,3.54,3.54,0,0,1,100.36,44.23Zm1.92,0a2.08,2.08,0,0,0,.35,1.35,1.33,1.33,0,0,0,1.91,0,2.34,2.34,0,0,0,.33-1.44,1.88,1.88,0,0,0-.35-1.28,1.29,1.29,0,0,0-1.89,0A2.13,2.13,0,0,0,102.28,44.24Z" transform="translate(0 0)"/><path d="M107.85,41.13h2.84a3.23,3.23,0,0,1,1.36.23,2.16,2.16,0,0,1,.86.65,2.67,2.67,0,0,1,.49,1,4.59,4.59,0,0,1,.15,1.2,4.22,4.22,0,0,1-.22,1.54,2.6,2.6,0,0,1-.63.92,2.15,2.15,0,0,1-.86.49,4.57,4.57,0,0,1-1.15.17h-2.84Zm1.91,1.4v3.39h.47a2,2,0,0,0,.86-.13,1,1,0,0,0,.4-.47,3.08,3.08,0,0,0,.14-1.08,2.1,2.1,0,0,0-.32-1.34,1.35,1.35,0,0,0-1.07-.37Z" transform="translate(0 0)"/><path d="M114.64,41.13h1.92v6.2h-1.92Z" transform="translate(0 0)"/><path d="M117.6,45.28l1.82-.12a1.43,1.43,0,0,0,.24.68,1,1,0,0,0,.85.38.93.93,0,0,0,.63-.2.55.55,0,0,0,0-.87,2.36,2.36,0,0,0-1-.36,4.12,4.12,0,0,1-1.8-.76,1.5,1.5,0,0,1-.54-1.19,1.62,1.62,0,0,1,.28-.91,1.88,1.88,0,0,1,.83-.67,4,4,0,0,1,1.53-.24,3.16,3.16,0,0,1,1.81.44,2,2,0,0,1,.74,1.41l-1.8.11a.85.85,0,0,0-.94-.8.76.76,0,0,0-.51.14.44.44,0,0,0-.17.34.36.36,0,0,0,.14.27,1.62,1.62,0,0,0,.65.23,8,8,0,0,1,1.8.55,1.91,1.91,0,0,1,.79.68,1.8,1.8,0,0,1,.24.92A2,2,0,0,1,122,47.17a3.59,3.59,0,0,1-1.49.26,3,3,0,0,1-2.19-.61A2.35,2.35,0,0,1,117.6,45.28Z" transform="translate(0 0)"/><path d="M124.17,41.13h2.52l1,3.77,1-3.77h2.51v6.2h-1.57V42.6l-1.21,4.73h-1.42l-1.2-4.73v4.73h-1.57Z" transform="translate(0 0)"/><path d="M132.12,44.23A2.95,2.95,0,0,1,135.33,41a3.25,3.25,0,0,1,2.38.83,3.14,3.14,0,0,1,.84,2.33,3.7,3.7,0,0,1-.37,1.78,2.57,2.57,0,0,1-1.05,1.09,3.6,3.6,0,0,1-1.73.38,4,4,0,0,1-1.73-.33A2.59,2.59,0,0,1,132.55,46,3.54,3.54,0,0,1,132.12,44.23Zm1.92,0a2.08,2.08,0,0,0,.35,1.35,1.33,1.33,0,0,0,1.91,0,2.34,2.34,0,0,0,.33-1.44,1.88,1.88,0,0,0-.35-1.28,1.29,1.29,0,0,0-1.89,0A2.13,2.13,0,0,0,134,44.24Z" transform="translate(0 0)"/><path d="M142.46,41.13h3.19a2.2,2.2,0,0,1,1.56.49,1.88,1.88,0,0,1,.52,1.41,1.9,1.9,0,0,1-.57,1.47,2.44,2.44,0,0,1-1.72.53h-1.05v2.3h-1.93Zm1.93,2.64h.47a1.2,1.2,0,0,0,.78-.19.61.61,0,0,0,.22-.49.69.69,0,0,0-.19-.5,1.06,1.06,0,0,0-.74-.2h-.54Z" transform="translate(0 0)"/><path d="M151.8,46.3h-2.17l-.3,1h-2l2.33-6.2h2.09l2.33,6.2h-2ZM151.41,45l-.69-2.23L150.05,45Z" transform="translate(0 0)"/><path d="M154.76,47.33v-6.2H158a4.72,4.72,0,0,1,1.36.15,1.51,1.51,0,0,1,.76.56,1.74,1.74,0,0,1,.28,1,1.7,1.7,0,0,1-.22.89,1.75,1.75,0,0,1-.6.61,2.52,2.52,0,0,1-.68.24,1.82,1.82,0,0,1,.5.23,1.71,1.71,0,0,1,.31.33,2.86,2.86,0,0,1,.27.38l.93,1.8h-2.17l-1-1.9a1.64,1.64,0,0,0-.35-.48.84.84,0,0,0-.47-.14h-.17v2.52Zm1.92-3.69h.81a2.7,2.7,0,0,0,.51-.09.51.51,0,0,0,.31-.19.56.56,0,0,0,.12-.36.59.59,0,0,0-.19-.46,1.16,1.16,0,0,0-.72-.16h-.84Z" transform="translate(0 0)"/><path d="M165.28,46.3h-2.17l-.31,1h-2l2.33-6.2h2.09l2.33,6.2h-2ZM164.89,45l-.69-2.23L163.52,45Z" transform="translate(0 0)"/><path d="M176.61,46.42l.47.32a4.76,4.76,0,0,0,.44.21L177,48a6,6,0,0,1-.8-.47l-.55-.4a4.06,4.06,0,0,1-1.59.27,3.22,3.22,0,0,1-2.23-.73,3.14,3.14,0,0,1-1-2.45,3.23,3.23,0,0,1,.84-2.38,3.16,3.16,0,0,1,2.36-.85,3.25,3.25,0,0,1,2.38.83,3.17,3.17,0,0,1,.84,2.37A3.36,3.36,0,0,1,176.61,46.42Zm-1.47-1a2.61,2.61,0,0,0,.23-1.23,2.07,2.07,0,0,0-.35-1.34,1.24,1.24,0,0,0-1-.4,1.19,1.19,0,0,0-.93.41,1.92,1.92,0,0,0-.36,1.28,2.25,2.25,0,0,0,.35,1.43,1.19,1.19,0,0,0,.95.41,1.45,1.45,0,0,0,.37,0,2.45,2.45,0,0,0-.76-.44l.3-.69a1.47,1.47,0,0,1,.4.12,5.33,5.33,0,0,1,.55.35Z" transform="translate(0 0)"/><path d="M182.35,41.13h1.91v3.69a3,3,0,0,1-.17,1,2.13,2.13,0,0,1-.54.85,2,2,0,0,1-.76.52,4.11,4.11,0,0,1-1.34.2,8.74,8.74,0,0,1-1-.06,2.67,2.67,0,0,1-.9-.25,2.06,2.06,0,0,1-.65-.54,1.85,1.85,0,0,1-.41-.71,3.67,3.67,0,0,1-.18-1V41.13h1.91v3.78a1.1,1.1,0,0,0,.28.79,1.06,1.06,0,0,0,.78.29,1,1,0,0,0,1.06-1.08Z" transform="translate(0 0)"/><path d="M185.53,41.13h5.13v1.32h-3.21v1h3V44.7h-3v1.22h3.31v1.41h-5.23Z" transform="translate(0 0)"/><path d="M194.69,41.13h1.79l2.34,3.43V41.13h1.8v6.2h-1.8l-2.33-3.41v3.41h-1.8Z" transform="translate(0 0)"/><path d="M201.65,44.23a3.2,3.2,0,0,1,.85-2.36,3.16,3.16,0,0,1,2.36-.85,3.25,3.25,0,0,1,2.38.83,3.14,3.14,0,0,1,.84,2.33,3.7,3.7,0,0,1-.37,1.78,2.57,2.57,0,0,1-1.05,1.09,3.6,3.6,0,0,1-1.73.38,4,4,0,0,1-1.73-.33A2.59,2.59,0,0,1,202.08,46,3.54,3.54,0,0,1,201.65,44.23Zm1.92,0a2.08,2.08,0,0,0,.35,1.35,1.19,1.19,0,0,0,1,.41,1.16,1.16,0,0,0,.95-.4,2.27,2.27,0,0,0,.34-1.44,1.88,1.88,0,0,0-.35-1.28,1.21,1.21,0,0,0-1-.41,1.18,1.18,0,0,0-.93.41A2.13,2.13,0,0,0,203.57,44.24Z" transform="translate(0 0)"/><path d="M211.57,41.13h5.82v1.53h-1.95v4.67h-1.92V42.66h-2Z" transform="translate(0 0)"/><path d="M218.25,41.13h5.14v1.32h-3.22v1h3V44.7h-3v1.22h3.31v1.41h-5.23Z" transform="translate(0 0)"/><path d="M227.4,41.13h1.92V45.8h3v1.53H227.4Z" transform="translate(0 0)"/><path d="M237,46.3h-2.17l-.3,1h-2l2.33-6.2H237l2.33,6.2h-2ZM236.6,45l-.69-2.23L235.24,45Z" transform="translate(0 0)"/><path d="M246.94,44.79l1.68.51a3.12,3.12,0,0,1-.53,1.18,2.42,2.42,0,0,1-.91.71,3.37,3.37,0,0,1-1.37.24,3.9,3.9,0,0,1-1.65-.29,2.65,2.65,0,0,1-1.11-1,3.54,3.54,0,0,1-.46-1.9,3.23,3.23,0,0,1,.81-2.36,3.13,3.13,0,0,1,2.32-.83,3.17,3.17,0,0,1,1.84.47,2.84,2.84,0,0,1,1,1.46l-1.69.38a1.39,1.39,0,0,0-.19-.42,1.26,1.26,0,0,0-.39-.34,1.13,1.13,0,0,0-.52-.11,1.12,1.12,0,0,0-1,.52,2.19,2.19,0,0,0-.26,1.22,2.29,2.29,0,0,0,.31,1.41,1.06,1.06,0,0,0,.88.39,1.09,1.09,0,0,0,.83-.31A2,2,0,0,0,246.94,44.79Z" transform="translate(0 0)"/><path d="M253.59,41.13h1.91v3.69a3.24,3.24,0,0,1-.17,1,2.37,2.37,0,0,1-.54.85,2.14,2.14,0,0,1-.77.52,4.07,4.07,0,0,1-1.34.2,9,9,0,0,1-1-.06,2.68,2.68,0,0,1-.89-.25,2.21,2.21,0,0,1-.66-.54,1.85,1.85,0,0,1-.41-.71,3.67,3.67,0,0,1-.18-1V41.13h1.92v3.78a1.06,1.06,0,0,0,.28.79,1,1,0,0,0,.78.29,1.05,1.05,0,0,0,.77-.28,1.09,1.09,0,0,0,.29-.8Z" transform="translate(0 0)"/><path d="M256.76,41.13h5.14v1.32h-3.22v1h3V44.7h-3v1.22H262v1.41h-5.23Z" transform="translate(0 0)"/><path d="M263,41.13h1.92V45.8h3v1.53H263Z" transform="translate(0 0)"/><path d="M268.8,41.13h5.13v1.32h-3.21v1h3V44.7h-3v1.22H274v1.41H268.8Z" transform="translate(0 0)"/><path d="M275.07,41.13h1.79l2.33,3.43V41.13H281v6.2h-1.81l-2.32-3.41v3.41h-1.8Z" transform="translate(0 0)"/></svg>
