<svg xmlns="http://www.w3.org/2000/svg" xmlns:xlink="http://www.w3.org/1999/xlink" width="60" height="47" viewBox="0 0 60 47">
    <defs>
        <path id="prefix__a" d="M0 0.127L56.869 0.127 56.869 43.463 0 43.463z"/>
    </defs>
    <g fill="none" fill-rule="evenodd">
        <g transform="translate(0 .141)">
            <path fill="#3B985C" d="M52.651 3.209c.631-.031 1.88-.123 3.205-.061.942.044 2.49-.058 3.126.242.712.333.866.968.886 2.294.016 1.367-.152 3.705-.296 4.899-.318 2.634-.176 9.772-.176 12.365 0 4.1-.214 13.722-.297 17.979-.02 1.09.03 3.155-.413 3.628-.402.43-2.015.112-3.067.06-3.342-.161-6.912-.316-10.225-.18-2.334.094-4.2.018-6.307.12-2.346.115-4.488.448-6.549.544-4.606.215-9.2.484-13.689.484-4.617 0-9.583-.094-13.63.544-.504.08-1.524.677-2.065.06-.308-.35-.06-2.46-.06-3.565 0-6.356-.09-23.119-.058-29.078.012-2.281.597-5.52.768-7.86.022-.312.055.252 0 .003-.085-.372-.443-.28-.177-.605.17-.209 1-.137 1.474-.18 1.172-.11 3.13-.425 4.366-.486 2.242-.105 4.441-.226 6.078-.422 1.807-.217 3.84-.505 5.9-.604 2.092-.102 4.21.048 6.254.061 8.589.046 16.674.16 24.952-.242"/>
            <mask id="prefix__b" fill="#fff">
                <use xlink:href="#prefix__a"/>
            </mask>
            <path fill="#231F20" d="M49.651.209c.631-.031 1.88-.123 3.205-.061.942.044 2.49-.058 3.126.242.712.333.866.968.886 2.294.016 1.367-.152 3.705-.296 4.899-.318 2.634-.176 9.772-.176 12.365 0 4.1-.214 13.722-.297 17.979-.02 1.09.03 3.155-.413 3.628-.402.43-2.015.112-3.067.06-3.342-.161-6.912-.316-10.225-.18-2.334.094-4.2.018-6.307.12-2.346.115-4.488.448-6.549.544-4.606.215-9.2.484-13.689.484-4.617 0-9.583-.094-13.63.544-.504.08-1.524.677-2.065.06-.308-.35-.06-2.46-.06-3.565 0-6.356-.09-23.119-.058-29.078.012-2.281.597-5.52.768-7.86.022-.312.055.252 0 .003-.085-.372-.443-.28-.177-.605.17-.209 1-.137 1.474-.18 1.172-.11 3.13-.425 4.366-.486 2.242-.105 4.441-.226 6.078-.422 1.807-.217 3.84-.505 5.9-.604 2.092-.102 4.21.048 6.254.061 8.589.046 16.674.16 24.952-.242" mask="url(#prefix__b)"/>
        </g>
        <path fill="#FEFEFE" d="M36.139 22.128c3.424-.218 6.976.949 10.034 2.034 2.236.79 4.645 1.378 6.592 3.158.633.579 1.375 1.64 1.319 2.408-.198 2.61-4.947 4.786-7.055 5.554-3.85 1.401-8.228 1.59-12.267 2.237-7.913 1.27-15.377 1.474-23.331.39-1.26-.168-2.714-.54-4.146-1.16-.94-.408-3.626-1.593-3.728-2.875-.129-1.644 1.547-3.791 2.24-4.637 2.278-2.779 5.663-3.83 9.738-5.023 1.026-.299 2.894-.677 3.843-.78 1.227-.131 2.26-.136 2.594-.135 5.026-.003 8.788-1.275 14.041-1.173.043 0 .085.006.126.002"/>
        <path fill="#231F20" d="M33.996 29.349c.007-.648.11-1.255.31-1.791.887.046 1.152.296 1.242.786-.353.458-.865.79-1.552 1.005m2.33 1.89c-.146-.193-.286-.38-.412-.571.138-.136.283-.268.436-.406.77-.693 1.643-1.479 1.616-3.079l-.002-.143-.074-.122c-.98-1.628-4.2-1.284-5.627-.75l-.322.121-.017.347c-.055 1.08-.204 2.104-.348 3.095-.194 1.331-.395 2.708-.381 4.273l.005.546.539-.024c.104-.004.206-.001.314.002.248.008.503.015.774-.073l.178-.058.101-.16c.188-.296.25-.716.324-1.203.047-.309.142-.936.274-1.087.134.04.437.239.68.471.344.325.68.838 1.034 1.574l.136.281.31.015c.426.019.8-.016 1.116-.05l.514-.055-.05-.521c-.107-1.094-.644-1.8-1.118-2.424M26.034 25.85c-1.465.053-2.939.207-4.638.487l-.405.067-.031.414c-.056.748-.13 1.521-.203 2.269-.169 1.753-.343 3.565-.318 5.355l.008.57.56-.052c.756-.07 1.6-.08 2.417-.092.622-.008 1.265-.017 1.875-.051l.388-.022.09-.382c.111-.466.221-.93.226-1.51l.003-.463-.454-.063c-.496-.069-.944-.012-1.34.038-.216.027-.42.053-.605.054-.055 0-.146-.02-.234-.039-.135-.029-.29-.063-.454-.057-.163.004-.44.22-.456-.08-.012-.227.027-.47.063-.693l.053-.308.03-.172c.348-.052.647.005 1.027.08.461.09.985.193 1.698.106l.262-.032.13-.233c.116-.21.117-.476.12-.783 0-.093 0-.241.009-.31.007-.06.053-.132.073-.19.074-.212-.136-.39-.297-.482-.523-.299-1.197-.24-1.848-.182-.312.027-.89.078-1.024-.02-.042-.171-.028-.305-.007-.506.014-.134.03-.292.03-.48.101-.034.268-.033.573-.014.128.007.26.016.4.017.308.004.604-.027.89-.056.41-.043.795-.084 1.134-.005l.596.138.04-.617c.02-.297.082-.673.132-.976l.019-.11.105-.637-.637.023M14.486 26.268c-1.047.453-3.003 1.72-3.687 3.605-.349.962-.297 1.911.153 2.822.687 1.387 1.77 2.756 4.583 2.399l.282-.036.123-.26c.238-.5.165-1.13.106-1.637l-.006-.056-.058-.501-.498.037c-.632.046-1.255-.153-1.667-.535-.341-.316-.518-.732-.526-1.236-.01-.711.534-1.476 1.078-1.864.034-.024.105-.052.173-.078.201-.077.538-.206.687-.59.158-.41.104-.836.06-1.178-.016-.124-.036-.278-.028-.338.021-.166.174-.436.004-.57-.105-.083-.248-.062-.371-.047-.135.017-.281.009-.408.063M44.908 30.491c-.08.198-.275.536-.675.573-.23.021-.705-.176-.793-.303l.002.004-.005-.008.003.004c-.06-.137-.03-.376.082-.643.197-.467.542-.805.666-.85l-.005.001.007-.001h-.002c.458-.103.605.073.654.13.195.234.224.703.066 1.093m2.437-2.533l-.006-.034-.01-.034c-.123-.415-.401-.637-.646-.833-.243-.195-.624-.449-1.104-.583-.165-.047-.339-.054-.509-.027-.145.024-.279.098-.428.103-.148.004-.277-.002-.42.045-.573.187-1.521.817-1.917 1.274-1.044 1.213-1.794 4.047-.693 5.477.36.469.864.743 1.457.795.978.083 1.925-.441 2.439-.916 1.088-1.004 2.222-2.986 1.837-5.267"/>
        <path fill="#FEFEFE" d="M55.326 1.856c-2.6-.262-5.438-.248-8.11-.12-12.115.577-23.924-.648-34.376.667-3.755.471-7.114.305-10.731 1.028-.781 4.507-1.074 14.388-.767 19.692 4.123-.057 7.98-.225 11.617-.425.73-.04 1.42-.293 2.072-.456-1.662-.158-4.729-.702-6.723-1.257-.638-.18-1.43-.49-1.97-.869-.228-.162-.446-.56-.752-.87-.822-.83-1.971-2.04-2.026-3.646-.06-1.75 1.029-3.212 1.853-3.997 1.232-1.175 2.99-1.949 4.748-2.782 3.52-1.659 6.967-2.809 10.947-3.56 1.89-.357 4.07-.866 6.08-.866 2.384 0 4.855.365 7.242.52 5.082.33 9.217 1.08 13.087 3.213 1.643.906 4.32 2.34 4.674 4.779.205 1.42-.6 3.212-1.257 3.909-1.056 1.115-2.953 1.766-4.633 2.256-2.252.657-4.657 1.303-7.075 1.702l.154.024c.486.088 3.028-.191 4.173-.217 1.267-.032 2.684.14 4.077.241 2.039.147 3.899.294 5.686.363.585.022 1.15-.115 1.715 0-.261-5.191.657-14.592.295-19.329"/>
        <path fill="#FEFEFE" d="M25.57 16.223c-.656.052-.943-.24-1.337-.432-.112-.101-.686-.593-.786-.723-.1-.13-1.505-1.195-2.624-1.87-.407.972.074 2.969-.935 3.147-.443.082-1.109-.403-1.204-.737-.055-.193.055-.667.068-.866.075-1.31.136-4.181 1.136-4.32.793-.112 1.443.986 2.139 1.42.896.557 1.67.639 2.407 1.233.576-.638-.239-2.778.602-3.024.9-.262 1.412 1.03 1.338 1.913-.03.348-.21.803-.268 1.235-.172 1.3.03 2.121-.537 3.024M33.32 15.172c-.017-.911.141-2.225.219-3.268.68.247 1.568.27 1.878.734.789 1.185-1.16 2.148-2.097 2.534m3.76-3.268c-.56-1.032-3.553-1.57-4.985-1.532-1.472.04-.942 3.175-1.228 4.667-.068.352-.275.462-.29.932.932 1.454 3.367.355 4.479-.2.846-.422 2.013-.878 2.311-1.733.179-.512 0-1.599-.288-2.134M11.401 16.388c-.632-1.323-.372-3.516.735-4.137.954 1.1.597 3.693-.735 4.137m1.673-5.741c-1.096-.544-2.63-.096-3.544.431-.396.342-.727 1.19-.871 1.853-.243 1.136.024 2.89.335 3.518.759 1.534 3.171 2.302 4.614.74 1.652-1.786 1.292-5.634-.534-6.542M43.24 13.955c.221-.573.647-.957.926-1.48.512.281.625.93.842 1.48H43.24zm2.892-1.188c-.379-.815-.91-2.729-2.007-2.592-.14.017-.317.1-.335.123-1.257 1.647-3.188 3.92-3.811 5.863 1.132 1.506 1.559-.422 2.54-.739.946-.306 1.441.092 2.676-.062.21.782 1.253 1.85 2.005.863-.283-1.15-.558-2.352-1.068-3.456z"/>
    </g>
</svg>
