<svg xmlns="http://www.w3.org/2000/svg" viewBox="0 0 500.44 374.01"><defs><style>.cls-1{fill:#2a2f54}.cls-2{fill:#e5a2d2}.cls-3{fill:#a4efdf}.cls-4{fill:#9a8bd0}.cls-5{fill:#a1e2db}</style></defs><g id="Capa_2" data-name="Capa 2"><g id="Capa_1-2" data-name="Capa 1"><path class="cls-1" d="M56.46 166.84c-7.11-1-9-3.23-8.34-10.47.29-3.53-2.73-2.42-3.94-2.36-4.13.18-7.16-1.21-8.94-4.88-1.91-3.93-.32-7.47 1.94-10.62 3.09-4.31 12.91-4.27 15.2.31 1 2 .7 5.29-.13 7.6-1.87 5.24.47 5.28 4.32 4.19 7.87 3.61 9 8 3.82 14.88zm-3.33-12.23a2.44 2.44 0 00-2.39 2.4c-.14 1.83 1 2.7 2.76 2.76a2.14 2.14 0 002.35-2.53 2.58 2.58 0 00-2.72-2.63z"/><path class="cls-2" d="M134.39 202.47c1.58 1 3.92 2.45 3.56 3.82-1.78 6.85 5.18 10.82 5.15 16.76 0 3.53-2.83 5.95-6.23 6.93-3.22.92-6.85-.54-7.67-3.06-1.54-4.78-4.76-3.72-7.94-3.76-2.47-1.74-4.82-3.59-5.7-6.69 8.59-1.54 11.44-5.3 9.9-13.05a11.59 11.59 0 018.93-.95zm-2.88 16.32a3.58 3.58 0 00-2.87 2.88c-.36 1.66 1 1.84 2.19 1.83s2.93.14 2.94-1.7a3.17 3.17 0 00-2.26-3.01z"/><path class="cls-3" d="M383 312.34a18.81 18.81 0 002.9-.45c4.07-1.26 7.94-1.22 10.87 2.3s2.67 7.28.23 11c-2.71 2.94-8.56 2.31-9 7.88-4 .55-5.52-1-4.76-5.07s-1.53-6.36-5.82-5.79c-5.32.7-8.9-1.65-10-6.58-.78-3.4 2.25-7.82 6.18-9s7.42 1 9.41 5.73a8 8 0 00-1.48.09c-2 .44-3.37 1.48-3.15 3.71a1.92 1.92 0 002 1.83c2.14-.2 2.14-2.19 2.58-3.69a7.62 7.62 0 00.04-1.96zm12 8c-.06-1.65-.82-2.92-2.59-2.82a3.09 3.09 0 00-3.09 3.16c0 1.76 1.26 2.54 2.94 2.49s2.63-1.07 2.74-2.81zM125.46 203.42c1.54 7.75-1.31 11.51-9.9 13.05a5.84 5.84 0 00-3.77-.92l-3.31-4.17c-.07-4.84-3.79-2.13-5.86-2.82-5.44-1-4.29-6.8-7.31-9.69a10.83 10.83 0 006.17-4.07c5.76 5.5 9.64 5.13 13.14-1.24 1.6 4.91 6.52 5.78 10.09 8.29z"/><path class="cls-4" d="M298.24 309.27c-3.84-1.92-7.09-4.63-8-8.9-1-4.62 3.36-6.75 5.78-9.65a4.61 4.61 0 015.07-1.15c3 1.2 6.19.56 9.23 1.15-4.52 5.16-4.35 7.67.87 12.94-2.88 1.62-6.14 2.85-4.26 7.44.57 1.39-6.54 6.39-8.11 5.81-1.23-.46-1.95-1.61-.7-2.69 2-1.73.22-3.32.09-5 1.89-1.45 5-2.71 4.39-5.24-.53-2.33-3.68-1.06-5.67-1.44-.08 0-.19.16-.63.55 1.81 1.67 4.7 3.23 1.94 6.18z"/><path class="cls-1" d="M114.62 193.56c-3.5 6.37-7.38 6.74-13.14 1.24 0-2.39-1.81-2.2-3.48-2.53-3.48-.69-5.61-2.89-5.77-6.52a6.37 6.37 0 014.27-6.65c3.42-1.35 6.29-.29 8.17 2.75 1 1.64 2.13 1.89 3.93 2.1 5.1.58 7.4 4.51 6.02 9.61zm203.61 56.76c1.1.33 2.18.71 3.29 1 5.79 1.45 8.74 5.7 7.45 10.78s-6.13 7.47-11.77 5.91c-.64-.17-1.24-.44-1.86-.67l-1.21-.93c-3.64-7.2-3.14-9.66 3.07-15l-.1.08 1.09-1.11z"/><path class="cls-4" d="M187.56 233.22l-2.88 1.05c-2.62-1.63-3.71-5.19-7.11-5.82-1.36-.25-2.22-.81-2.09-2.22.22-2.54-1.94-3.72-3-5.54 4.33-.35 7.07-5.18 11.87-4.21l7.2 2.24c3.92 7.99 3.13 10.83-3.99 14.5z"/><path class="cls-5" d="M321.58 295.36c3.87-.51 5.93-3.84 8.81-5.6 7.41-4.52 15.06-2.76 15.65 8.41-4-.24-6.83 1.4-8.28 5.21h-4.66c-1-2.5-1.1-6.46-5.51-2.6-2 1.77-3.78-2.45-6.28-1.51.1-1.27.18-2.61.27-3.91z"/><path class="cls-2" d="M172.5 220.69c1 1.82 3.2 3 3 5.54-.13 1.41.73 2 2.09 2.22 3.4.63 4.49 4.19 7.11 5.82.59 4.68-1.81 7.36-6.12 8-4 .55-6.71-1.79-7.75-5.54-.53-1.91-1-3.26-3.12-3.84-2.69-.73-3.94-2.85-4.26-5.55 3.52-1 6.33-2.75 6.94-6.75z"/><path class="cls-3" d="M170.37 220.55c-.61 4-3.42 5.74-6.94 6.75l-2.07-.21c.44-4.06-2-4-4.87-3.45-2-2.61-1.43-11.78.8-13 2.41-1.33 11 2.59 12.4 5.58a10.67 10.67 0 01.68 4.33z"/><path class="cls-1" d="M321.58 295.36c-.09 1.3-.17 2.59-.26 3.89-2.13 4.32-5.64 5.48-10.12 4.41-5.22-5.27-5.39-7.78-.87-12.94 6.3-2.22 8.67-1.25 11.25 4.64z"/><path class="cls-2" d="M254 234.8c1.64-.14 3.29-.37 4.93-.4 4.36-.09 7.5 2.56 7.83 6.5a7.16 7.16 0 01-6.31 7.51c-4.71.45-7.59-1.82-8.19-6.49a22.57 22.57 0 01-.06-2.47c.72-1.51 2.52-2.6 1.8-4.65z"/><path class="cls-4" d="M272.35 84.42a6.76 6.76 0 017.07-6.74c4.25 0 6.31 2.51 6.68 6.47.33 3.57-3.09 7.14-6.67 7.25s-7-3.34-7.08-6.98z"/><path class="cls-2" d="M246.27 210.24c-.62 3.9-3.5 4.95-6.83 5.17s-5.48-2.13-6.9-4.84c-.74-1.42-.83-3.19-1.22-4.8 6.51-7 9-7.36 15.18-2.09-1.46 1.27-4.5 1-4.15 4 .27 2.37 1.89 2.85 3.92 2.56z"/><path class="cls-1" d="M238.39 192.38c-2.2-3.47-2.14-6.87.59-10 2.22-2.52 5.26-2.86 8.16-1.72 3.84 1.5 5.21 4.75 5 8.75-.93 1.79-1.63 3.3-4.36 2-3.13-1.41-6.38-.41-9.39.97z"/><path class="cls-2" d="M319.53 275.36c3.52-.07 7.07 2.94 7.19 6.09.13 3.34-3.53 7.41-6.71 7.45a7 7 0 01-6.85-7c0-3.99 2.39-6.46 6.37-6.54z"/><path class="cls-1" d="M337.76 303.38c1.45-3.81 4.28-5.45 8.28-5.21l3 1.3c.14 2-.11 4.19 2.56 4.85.18 2.73-1.1 4.84-2.85 6.75-2.72.92-5.42 1.62-8.06-.22a7.76 7.76 0 01-2.93-7.47z"/><path class="cls-2" d="M297.34 231c.21-3.26 2-4.63.57-7.08-2.08-3.48.6-7.65 4.66-8.64a6.41 6.41 0 017.56 5.26c.5 3.49-2.64 7.85-6.19 7.45-2.62-.29-4.11.8-6.6 3.01z"/><path class="cls-3" d="M121.57 167.35c-.3 3.67-2.14 6-6.17 6.13a6.46 6.46 0 11.29-12.88c3.99.28 5.77 2.7 5.88 6.75z"/><path class="cls-2" d="M302.36 264.32c-2.19-2.65-4.86-5.1-3.87-9.12 1.44-5.9 5.67-7.91 12.3-5.81-6 5.35-6.33 9.44-1.12 14.24l1.16 1.39-7.06.11z"/><path class="cls-1" d="M246.5 203.68c-6.16-5.27-8.67-4.92-15.18 2.09-3.75-1.18-5.59-3.57-4.21-7.5 1.23-3.51 4.48-4.27 9.09-2.39 4.94.24 9.94.37 11.17 6.75l-.3 1a.54.54 0 00-.57.05z"/><path class="cls-4" d="M290.73 272.5c-.28 2.42-2 4.41-5.25 4.5-2.79.08-6.42-4.5-6.31-7.77.1-3.56 2.2-5.47 5.56-5.7s5.96 3.36 6 8.97zm-80.3-50.02c2.22-.65 4.21-.53 5.31 1.59 1.31 2.52-.44 4-2.23 5.35a5.79 5.79 0 00-1.06 1c-1.95 2.44-4.26 3.75-7.34 2.11a5.21 5.21 0 01-2.65-6.35c.85-3.4 3.5-4.08 6.61-3.75a12.51 12.51 0 001.36.05z"/><path class="cls-3" d="M56.46 166.84l3.93-1.35c4.8-.54 6.85-3.58 7.34-8 3.84 1.27 4.67 4.38 4.24 7.79a7.75 7.75 0 01-6.68 7c-4.19.64-7.2-1.48-8.83-5.44zM238.34 36.56a8.23 8.23 0 011.66-5.64c2.14-2.6 4.49-4.17 7.22-.62.3.39.77.67 1 1.09 1.14 1.82 4.4 2.5 3.31 5.51s-3.7 4-6.79 3.9c-3.27.27-4.11-3.07-6.4-4.24z"/><path class="cls-4" d="M70.42 268.45c-.44 3.11-2.29 5.4-6 5.59-3.41.17-6.12-2.9-6-6.45.18-3.84 2.49-5.69 6.07-5.75 3.31-.05 6 3.01 5.93 6.61z"/><path class="cls-3" d="M158.31 190.81c-3.62 1.64-3.24 6.51-7 8.15-1.63.7-3 0-4.18-.75-1.6-1.06-2.82-2.69-2-4.61 1.43-3.33 3.38-6.58 7-7.85 1.93-.69 3.81.76 5.07 2.41a13.8 13.8 0 011.11 2.65z"/><path class="cls-2" d="M247.37 202.63c-1.23-6.38-6.23-6.51-11.17-6.75l2.19-3.5c3-1.41 6.26-2.39 9.34-.93 2.73 1.29 3.43-.22 4.36-2a4.25 4.25 0 010 5.06c-1 1.39-2 2.57.19 3.92 1.05.66.77 1.57-.53 2.09-1.5.59-2.92 1.39-4.38 2.11z"/><path class="cls-4" d="M84.47 206.42a6.74 6.74 0 01-3.91 2c-2 .11-4.24 2.12-6-.07s.07-4.77.44-7.08 2.35-3.53 4.73-3.73c4.35-.36 6.32 2.8 5.16 8.17a.93.93 0 00-.42.71z"/><path class="cls-3" d="M88 211.55a33.35 33.35 0 014.47 0c3.86.5 5.39 3 5 6.66a5.1 5.1 0 01-5.88 4.79 5.8 5.8 0 01-5.49-6.46c.07-1.64.45-3.26.68-4.9z"/><path class="cls-1" d="M356.37 328.5c2-2.13 2.2-4.88 3.3-7.18.85-1.79 1.86-3.09 4-3.14a4 4 0 013.87 2.55c1 2-.42 3.27-1.21 4.92-2.27 4.72-6.54 1.96-9.96 2.85z"/><path class="cls-4" d="M238.79 237.46c-3.16-.39-5.31-2.34-5.23-5.74a5.32 5.32 0 015.79-5.47c3.26.09 5.73 2.19 5.52 5.7-.2 3.27-2.22 5.39-6.08 5.51z"/><path class="cls-3" d="M377.74 281.34c3.28.41 5.28 2.14 5.23 5.5-.05 3.6-2.13 5.43-5.71 5.47-4 .05-5.21-2.55-5.1-5.86s2.34-4.91 5.58-5.11z"/><path class="cls-1" d="M347.74 264.06c-.41 3.08-2.23 5.13-5.46 5.1a4.81 4.81 0 01-5.07-5 5 5 0 015.11-5.51c3.19-.09 5.07 2.01 5.42 5.41z"/><path class="cls-3" d="M194.83 212.26c1.69-1.32 3.42-2.84 5.69-2.59 3.61.4 5.57 2.67 5.72 6.27.13 3.11-3.3 6.21-6.5 6a27.82 27.82 0 01-3.38-.6c1.56-3.34 1.5-6.48-1.53-9.08z"/><path class="cls-1" d="M194.83 212.26c3 2.6 3.09 5.71 1.53 9.09 2.24 8.52-.86 12.7-8.8 11.87 7.12-3.67 7.91-6.51 4-14.5l3.6 1.38c-.25-5.54-1.63-6.69-7.79-6.67 2.07-3.05 4.73-2.33 7.46-1.17z"/><path class="cls-4" d="M45.49 122.58c2.29-.44 5.35.06 4.43 2.92-.78 2.44-3.16 5.44-6.51 5.52a3.94 3.94 0 01-4.14-4.53c.34-3.43 2.65-4.66 6.22-3.91z"/><path class="cls-2" d="M388 333.08c.4-5.57 6.25-4.94 9-7.88 3.31 2.72 2.79 6 .44 8.65-3.09 3.43-6.44 2.05-9.44-.77z"/><path class="cls-4" d="M354.26 251.12c-3 1.53-6 2-8.19-1.3a4.47 4.47 0 01.75-6.21c2.37-2.13 4.89-2.51 7.26.15-3.93 2.55 1.5 4.87.18 7.36zm-21.16 52.23c.55.79 1.18 1.54 1.65 2.38 1.44 2.61.94 4.9-1.67 6.31s-5 .36-6.16-2.2c-1.33-2.85.36-4.76 2.82-5.93a12.25 12.25 0 013.37-.55z"/><path class="cls-2" d="M67.73 157.45c-.49 4.46-2.54 7.5-7.34 8 5.19-6.85 4-11.27-3.82-14.88 5.99-2.11 9.98.33 11.16 6.88z"/><path class="cls-1" d="M309.67 263.63c-5.21-4.8-4.89-8.89 1.12-14.24 2.55-.24 5.24-1.64 7.44.93l-1.09 1.11.1-.08c-7.02.28-9.4 4.15-7.57 12.28z"/><path class="cls-3" d="M57.61 199.89c2.32.52 4.11 1.48 4 4.24-.11 2.55-1.52 4.13-4 4.15s-3.85-1.7-4-4.18c-.07-2.7 1.72-3.72 4-4.21zm70.82-134.18c.15-3.13 1.5-5.25 4.93-4.64a3.41 3.41 0 012.92 4c-.62 3.33-3 4.07-6.05 3.3-.32-.08-.63-.18-.95-.27-.28-.77-.56-1.58-.85-2.39z"/><path class="cls-1" d="M292.78 322.16c-2.15-.35-3.78-1.26-3.75-3.76 0-2.14 1.18-3.51 3.32-3.54 2 0 3.59.86 3.78 3.11s-1.13 3.68-3.35 4.19zm-54.44-285.6c2.29 1.17 3.13 4.51 6.38 4.24 0 2.62-1.53 3.82-3.92 4.11a3.86 3.86 0 01-4.35-2.44c-.91-2.34-.45-4.47 1.89-5.91z"/><path class="cls-4" d="M346.67 215.76c2.09.6 3.53 1.84 3.41 4.2s-1.53 3.65-3.92 3.41-3.75-1.63-3.56-4 1.77-3.37 4.07-3.61zm-41.12-7.69c-2.33-.42-3.88-1.72-3.85-4s1.61-3.59 3.92-3.61 3.66 1.32 3.58 3.74-1.53 3.54-3.65 3.87z"/><path class="cls-1" d="M354.26 251.12c1.32-2.49-4.11-4.81-.18-7.36 3.26-.35 5.8 1.05 5.73 4.28s-2.92 3.41-5.55 3.08z"/><path class="cls-4" d="M112.19 66.09c-.35 2.12-1.25 3.69-3.76 3.68s-3.8-1.1-3.87-3.51a3.54 3.54 0 013.64-3.88c2.38-.17 3.46 1.54 3.99 3.71z"/><path class="cls-5" d="M340.69 310.85c2.64 1.84 5.34 1.14 8.06.22 1.94 1.52 1.42 3.17.14 4.74a4.58 4.58 0 01-5.48 1.21c-2.75-1.02-3.33-3.44-2.72-6.17z"/><path class="cls-3" d="M500.44 370.24c-.5 2-1.27 3.92-3.79 3.76a3.58 3.58 0 01-3.66-3.91 3.41 3.41 0 013.42-3.59c2.18-.03 3.66 1.36 4.03 3.74z"/><path class="cls-4" d="M125.46 203.42l-.75-1.57c.48-3.18 2.17-5.34 5.51-4.95 3 .35 4.6 2.35 4.17 5.57a11.59 11.59 0 00-8.93.95z"/><path class="cls-3" d="M228.09 30.88c2.3.17 3.8 1.39 4 3.64.23 2.51-1.66 3.66-3.72 3.75-2.3.1-3.68-1.66-3.75-3.82s1.5-3.15 3.47-3.57z"/><path class="cls-2" d="M3.58 140.72c2.23.25 3.73 1.43 3.87 3.72.15 2.51-1.73 3.61-3.79 3.66-2.29.05-3.65-1.7-3.66-3.88s1.57-3.12 3.58-3.5z"/><path class="cls-5" d="M309.67 263.63c-1.83-8.13.55-12 7.54-12.25-6.21 5.36-6.71 7.82-3.07 15a3.21 3.21 0 01-3.31-1.38z"/><path class="cls-4" d="M111.79 215.55a5.84 5.84 0 013.77.92c.88 3.1 3.23 4.95 5.7 6.69-6.15 2.2-9.79-.72-9.47-7.61zm233.59-8.12a3.31 3.31 0 01-3.48-3.38c-.18-2.49 1.54-3.51 3.76-3.49a3.09 3.09 0 013.26 3.52c-.07 2.13-1.39 3.21-3.54 3.35z"/><path class="cls-2" d="M187.38 213.43c6.16 0 7.54 1.13 7.79 6.67l-3.6-1.38-7.2-2.24c.05-1.95 1.63-2.42 3.01-3.05zM88 211.55l-1.22.12c-3.16-.69-1.91-3.33-2.31-5.25a.93.93 0 01.38-.72 5.78 5.78 0 001.93-.25c2-1 4-1.13 5 1.17s-1.3 2.94-2.69 3.95c-.38.29-.72.65-1.09.98z"/><path class="cls-1" d="M288 308.3c-.23 1.84-1 3.15-3 3.28a3 3 0 01-3.46-3.21 3 3 0 013.19-3c1.99-.07 2.91 1.21 3.27 2.93zm-11.37-74.57c-2.37-.41-5.47 2.32-6.58-1.18-1-3.16 1-4.05 3.9-2.89 1.71.7.2 3.9 2.68 4.07z"/><path class="cls-5" d="M240.9 24.76c-1.29 1.09-1.63 3.36-3.68 3.46a1.46 1.46 0 01-1.3-2.4c.9-1.39-.39-4.16 2.18-4.22 1.26-.02 2.38 1.51 2.8 3.16z"/><path class="cls-4" d="M128.43 65.71c.29.81.57 1.62.85 2.43-1.2 1.23-2.15 3.14-4.37 2a2.36 2.36 0 01-1.11-3.32c1.05-2.29 2.9-1.55 4.63-1.11z"/><path class="cls-5" d="M246.5 203.68a.54.54 0 01.57-.06c.11 2.25.76 4.57-.8 6.62-2 .29-3.65-.19-3.92-2.53-.35-3.06 2.65-2.71 4.15-4.03z"/><path class="cls-4" d="M274.17 248.84c-1.43-.33-2.38-1.17-2.22-2.69a2.44 2.44 0 012.69-2.26 2.11 2.11 0 012.2 2.57 2.7 2.7 0 01-2.67 2.38z"/><path class="cls-2" d="M295.09 247.5c-.14 1.55-.94 2.64-2.45 2.6-1.81 0-2.54-1.37-2.38-3a2.27 2.27 0 012.63-2.29 2.45 2.45 0 012.2 2.69z"/><path class="cls-1" d="M104.48 175.68a2.08 2.08 0 01-1.8-2.28 2.33 2.33 0 114.63.42c-.19 1.31-1.17 1.94-2.83 1.86z"/><path class="cls-2" d="M351.6 304.32c-2.67-.66-2.42-2.86-2.56-4.85 1.69.08 3.88-1.05 4.78 1.22.71 1.79-.28 3.15-2.22 3.63zm-195.11-80.68c2.85-.58 5.31-.61 4.87 3.45-4.36 2.66-5.01.19-4.87-3.45z"/><path class="cls-3" d="M86.16 252.82c-1.57.17-1.62-.91-1.57-1.88.06-1.4-.27-3.13 1.84-3.4 1.26-.17 2.46.31 2.52 1.66.05 1.87-1.55 2.68-2.79 3.62z"/><path class="cls-2" d="M150.34 174.57c0 1.54-.75 2.62-2.3 2.7a2.15 2.15 0 01-2.35-2.09c-.16-1.63.86-2.45 2.36-2.57a1.87 1.87 0 012.29 1.96zm-.41 34.9c-.32 1.4-1.08 2.48-2.59 2.48a2.4 2.4 0 01-2.38-2.14c-.21-1.68 1-2.28 2.5-2.29a2.24 2.24 0 012.47 1.95zm17.93-64.9c-1.8-.07-2.49-.86-2.38-2.24s1-2.52 2.54-2.42a2.14 2.14 0 012.12 2.31 2.29 2.29 0 01-2.28 2.35z"/><path class="cls-3" d="M214.51 42.72a1.92 1.92 0 01-2.14-2.15c0-1.54.75-2.61 2.33-2.67a2.19 2.19 0 012.47 2.46c-.06 1.57-1.17 2.29-2.66 2.36z"/><path class="cls-2" d="M54.52 282.4c-.06 1.27-.51 2.36-1.93 2.39a2.4 2.4 0 01-2.41-2.11c-.25-1.42.75-2.1 2-2.23a1.87 1.87 0 012.34 1.95z"/><path class="cls-4" d="M82.41 171.36a2 2 0 01-2.06 2.25c-1.5.12-2.63-.43-2.64-2.11 0-1.42 1-2 2.26-2s2.24.44 2.44 1.86z"/><path class="cls-3" d="M190.21 2.35c-.23 1.25-.88 2.21-2.24 2-1.11-.16-2.36-.69-2.34-2.07A2.14 2.14 0 01188.17 0a2.2 2.2 0 012.04 2.35zm112.15 261.97l1.41.81c.38 2-.47 3.13-2.52 3.17a1.71 1.71 0 01-1.9-1.76c-.06-2.13 1.54-2.12 3.01-2.22z"/><path class="cls-1" d="M254 234.8c.7 2-1.1 3.14-1.8 4.65-1.74-.5-2.52-1.71-1.91-3.36s2.15-1.84 3.71-1.29z"/><path class="cls-4" d="M102.62 208.56c2.07.69 5.79-2 5.86 2.82-2.64.5-4.78-.07-5.86-2.82z"/><path class="cls-5" d="M314.13 266.39l1.21.93a1.07 1.07 0 01-1.21-.93z"/><path class="cls-2" d="M53.13 154.61a2.58 2.58 0 012.72 2.63 2.14 2.14 0 01-2.35 2.53c-1.71-.06-2.9-.93-2.76-2.76a2.44 2.44 0 012.39-2.4z"/><path class="cls-5" d="M131.51 218.79a3.17 3.17 0 012.26 3c0 1.84-1.69 1.68-2.94 1.7s-2.55-.17-2.19-1.83a3.58 3.58 0 012.87-2.87z"/><path class="cls-2" d="M395 320.36c-.13 1.74-1 2.77-2.74 2.83s-3-.73-2.94-2.49a3.09 3.09 0 013.09-3.16c1.79-.1 2.59 1.17 2.59 2.82zm-12-8.02a7.62 7.62 0 010 2c-.44 1.5-.44 3.49-2.58 3.69a1.92 1.92 0 01-2-1.83c-.22-2.23 1.17-3.27 3.15-3.71a8 8 0 011.48-.09z"/><path class="cls-1" d="M298.24 309.27c2.78-2.95-.13-4.51-1.93-6.15.44-.39.55-.57.63-.55 2 .38 5.14-.89 5.67 1.44.58 2.53-2.5 3.79-4.39 5.24z"/><path class="cls-5" d="M317.11 251.46l1.09-1.11z"/></g></g></svg>