<svg width="487" height="281" fill="none" xmlns="http://www.w3.org/2000/svg"><g style="mix-blend-mode:multiply"><mask id="path-1-inside-1" fill="#fff"><path d="M247.064 131.395a66.12 66.12 0 0036.307 2.557 146.953 146.953 0 0018.882-4.78c3.107-.98 6.191-2.032 9.25-3.108 1.028-.358 3.036-1.625 4.063-1.457 1.626.286 2.534 3.489 3.203 4.78.383.765 2.391 3.633 2.175 4.374-.263 1.386-2.39 1.649-3.609 2.103l-10.875 4.207-9.226 3.609a52.299 52.299 0 00-8.82 3.562c-4.255 2.677-1.004 7.744-1.315 11.688-.478 6.166-5.569 10.923-10.636 13.863-10.684 6.166-24.332 4.78-33.893 13.432a.386.386 0 00-.103.427.38.38 0 00.366.243 90.643 90.643 0 0024.93-3.49c6.621-1.912 14.604-4.35 19.814-9.154a10.593 10.593 0 003.562-6.406c.478-4.063-1.865-7.888-.502-11.951 2.199-6.621 10.612-9.154 16.731-10.541 8.055-1.816 24.786-6.931 19.337-18.715-2.151-4.78-7.601-7.17-12.477-7.505-7.338-.502-14.126 3.729-20.484 6.693-18.787 8.724-39.701 5.473-59.348 2.055v.789l46.895-5.832 23.448-2.94c6.979-.861 16.731-2.629 21.177 4.493 8.39 13.433-22.731 19.361-30.451 22.277-3.609 1.362-9.561 3.131-10.23 7.601-.669 4.469 3.227 7.744 4.78 11.305 3.466 8.39-8.078 10.23-13.648 11.808-7.385 2.079-14.795 4.063-22.348 5.425-13.72 2.391-27.965 2.845-41.302-1.673a52.577 52.577 0 01-16.971-9.369 41.398 41.398 0 01-6.668-7.171 7.692 7.692 0 01-2.127-5.521 9.847 9.847 0 014.397-5.617c10.948-8.246 24.117-13.289 37.216-16.899 13.648-3.752 27.63-6.142 41.517-8.795l22.874-4.351a130.185 130.185 0 0120.508-3.37c5.139-.143 11.784.646 14.341 5.737 3.729 7.17-3.537 13.91-9.704 16.205-6.167 2.295-13.218 1.841-19.576 3.872-3.513 1.124-8.676 3.394-8.174 7.912.454 4.063 5.211 6.453 7.744 9.13 5.713 6.023.861 12.453-4.947 15.991-5.809 3.537-13.218 5.162-19.887 6.788a180.094 180.094 0 01-67.475 3.226c-11.951-1.72-33.63-4.445-33.94-20.507-.144-7.171 5.951-11.593 11.449-14.819 5.975-3.49 12.118-6.717 18.213-9.991 12.596-6.789 25.36-13.29 38.53-18.931a225.93 225.93 0 0141.087-13.528 159.453 159.453 0 0121.775-3.203c6.525-.478 13.719-1.1 19.958 1.267a15.97 15.97 0 0110.182 15.369 21.368 21.368 0 01-7.649 16.109 37.775 37.775 0 01-17.616 7.864c-3.441.741-7.911 2.056-8.317 6.239-.813 8.031 14.843 11.234 10.66 19.91-1.41 2.94-4.781 4.517-7.553 5.928a525.762 525.762 0 01-9.824 4.78 204.039 204.039 0 01-21.201 8.294c-26.889 8.724-56.647 10.875-83.322.215-11.568-4.613-31.622-13.863-24.929-29.375 5.186-11.951 18.595-19.122 30.092-23.687 11.497-4.565 23.352-8.294 34.682-13.409 12.19-5.545 23.902-11.951 36.115-17.544a152.492 152.492 0 0137.861-12.955c11.019-1.912 25.934-3.274 34.825 5.115 10.804 10.23-3.657 23.041-10.899 30.236a54.117 54.117 0 00-9.848 11.951 29.852 29.852 0 00-2.844 16.492c.287 7.171-.813 13.194-5.569 18.691a44.417 44.417 0 01-13.935 10.063c-12.74 6.358-26.985 10.493-40.633 14.341a321.662 321.662 0 01-45.055 9.202c-14.341 1.769-29.113 1.578-42.115-5.473-11.449-6.214-20.413-16.038-28.946-25.647-2.748-3.083-6.214-6.74-5.091-11.257a21.642 21.642 0 016.43-9.131 68.046 68.046 0 0115.966-11.425c12.214-6.573 25.599-10.875 38.435-16.062a933.541 933.541 0 0041.063-17.712 1011.83 1011.83 0 0040.633-19.814c13.218-6.86 27.846-15.393 43.31-12.094a56.234 56.234 0 0119.122 8.891 43.623 43.623 0 0114.341 14.15 21.367 21.367 0 011.817 17.879c-2.223 6.071-7.171 8.509-12.86 10.588-3.322 1.195-7.529 2.39-9.752 5.378-2.916 3.92.12 7.72 2.247 11.138 7.673 12.238.383 27.32-9.728 35.495-10.947 8.867-25.408 13.671-38.554 18.189a334.309 334.309 0 01-42.712 11.521c-29.567 5.975-61.261 9.775-90.684 1.147-13.146-3.848-26.292-10.613-33.463-22.779a30.693 30.693 0 013.944-37.526c9.561-10.325 23.233-14.651 36.331-18.5a401.082 401.082 0 0039.677-13.791 364.554 364.554 0 0073.116-41.063c11.497-8.247 22.994-17.114 36.57-21.512a60.329 60.329 0 0138.506-.215c23.902 8.39 38.482 37.358 24.236 60.065A60.802 60.802 0 01356.63 137.8c-2.677 2.199-5.498 4.231-8.342 6.215a46.778 46.778 0 00-6.812 5.019c-6.573 6.597-.813 14.054 3.777 19.719 2.987 3.729 6.596 7.888 6.979 12.859.502 6.382-4.78 10.685-9.895 13.314a130.251 130.251 0 01-19.122 7.051 864.387 864.387 0 01-22.085 6.955c-14.604 4.374-29.304 8.39-44.051 12.19-14.748 3.801-29.806 7.505-44.96 10.087-29.614 5.019-61.045 5.234-88.604-8.222-11.592-5.641-24.571-14.055-31.073-25.623-7.72-13.935 1.817-28.013 11.736-37.789 17.879-17.664 42.378-26.149 65.348-34.921a419.561 419.561 0 0074.908-37.884c12.119-7.673 23.902-15.943 35.853-23.735s24.332-14.819 38.028-18.643c13.17-3.681 27.607-4.35 40.633.382a51.7 51.7 0 0127.464 24.595c13.432 24.906 8.485 53.899-1.363 79.115-5.139 13.17-10.732 27.44-21.75 36.857-10.183 8.7-23.114 13.481-35.566 17.903-28.97 10.301-58.823 17.998-88.629 25.407-29.805 7.41-60.089 14.007-90.827 11.664-25.192-1.936-50.791-10.277-69.913-27.248-9.56-8.58-22.802-23.113-13.743-36.45a76.785 76.785 0 0114.675-14.652 185.145 185.145 0 0117.042-12.453c23.472-15.225 49.406-26.531 74.096-39.51a1630.282 1630.282 0 0079.283-44.41 1831.112 1831.112 0 0038.936-23.901 184.461 184.461 0 0118.715-11.115 60.616 60.616 0 0122.564-5.832c25.981-1.649 53.659 8.605 74.239 24.141a94.775 94.775 0 0126.698 29.854c7.649 14.34 6.167 29.638-.263 44.051-10.23 22.994-28.825 41.47-49.596 55.142-47.493 31.287-105.025 37.693-158.637 52.584-28.204 7.863-55.739 21.153-85.258 23.161a83.4 83.4 0 01-39.534-6.048c-12.19-5.425-21.224-14.891-29.805-24.786-4.183-4.78-8.318-9.704-12.835-14.198a134.773 134.773 0 00-13.003-10.899c-8.485-6.501-20.03-14.915-19.122-27.009.598-7.027 5.522-12.62 10.589-17.09a157.977 157.977 0 0116.731-12.692 262.218 262.218 0 0135.375-19.456c25.384-11.759 51.843-21.057 77.49-32.243 27.607-11.951 54.663-25.336 81.123-39.725 12.979-7.17 25.766-14.509 38.553-21.99a106.804 106.804 0 0120.15-9.8 86.616 86.616 0 0122.348-3.872c25.83-1.51 51.74.907 76.845 7.17 24.236 6.215 47.803 17.377 65.347 35.519 9.728 10.015 17.329 23.017 14.556 37.454-2.653 13.72-12.309 25.432-21.511 35.423-19.122 20.77-43.024 36.737-66.734 51.915a728.278 728.278 0 01-74.407 42.115 565.556 565.556 0 01-79.019 31.693c-28.874 9.035-58.942 16.254-89.322 17.018a199.02 199.02 0 01-86.38-17.878c-12.382-5.569-25.074-11.951-34.491-22.038a45.957 45.957 0 01-10.422-18.213c-2.222-7.433-1.386-14.341.383-21.703 1.314-5.473 2.127-10.995-.31-16.301a44.08 44.08 0 00-8.797-11.257c-3.705-3.825-7.72-7.84-9.37-13.051-2.127-6.692.67-13.218 4.972-18.333a76.025 76.025 0 0115.178-12.739 512.92 512.92 0 0117.879-11.951 616.6 616.6 0 0136.498-21.75 837.387 837.387 0 01161.074-67.356C293.314 2.587 353.738-6.686 411.437 8.348a186.2 186.2 0 0139.964 15.058c11.807 6.19 22.922 14.604 28.945 26.818 12.501 25.36 1.625 54.496-13.528 75.984a360.882 360.882 0 01-27.201 32.865 251.1 251.1 0 01-29.997 29.232c-23.113 18.428-51.245 27.463-78.135 38.793-26.292 11.018-51.628 23.662-77.896 34.442a377.558 377.558 0 01-39.749 14.15c-14.341 4.064-29.495 6.525-44.051 2.175-.478-.143-.693.622-.215.765 14.676 4.374 30.045 1.936 44.481-2.175a398.845 398.845 0 0044.864-16.277c29.017-12.214 57.197-26.292 86.453-37.908a414.257 414.257 0 0041.183-17.951 162.488 162.488 0 0035.446-25.766 430.515 430.515 0 0030.595-33.08 180.366 180.366 0 0024.595-34.801c11.712-22.97 14.341-53.015-4.78-72.997-9.179-9.704-21.512-15.894-33.606-20.985a210.355 210.355 0 00-43.908-12.764C333.063-7.212 270.464 6.89 211.976 26.896c-57.938 19.79-114.61 44.481-166.596 77.011-6.374 4-12.684 8.111-18.93 12.334a148.497 148.497 0 00-16.134 11.951c-8.223 7.409-14.03 17.95-7.505 28.395 6.023 9.561 18.476 15.799 17.52 28.682-.55 7.625-3.777 14.509-2.964 22.277a41.014 41.014 0 006.238 17.472c7.338 11.76 19.409 19.48 31.527 25.599a214.174 214.174 0 0041.422 15.895c30.785 8.222 62.431 7.935 93.623 2.199 59.755-10.971 116.88-35.542 169.345-65.539a637.871 637.871 0 0074.717-48.879 206.647 206.647 0 0032.507-30.643c8.365-10.015 16.731-21.965 16.875-35.518.143-13.552-7.745-24.69-16.732-33.606a122.498 122.498 0 00-31.359-22.133c-23.185-11.616-49.118-16.731-74.813-18.715a215.429 215.429 0 00-43.358 0 74.318 74.318 0 00-20.006 5.306 177.232 177.232 0 00-19.886 10.78 1118.196 1118.196 0 01-85.234 45.413c-28.324 13.433-57.365 24.715-86.381 36.69-25.79 10.66-52.585 22.826-73.427 41.78-8.222 7.458-13.48 17.783-7.41 28.3 5.785 10.039 16.875 15.871 25.36 23.28 10.326 9.059 18.118 20.508 28.037 29.973a67.67 67.67 0 0033.797 17.736c29.83 6.023 59.038-5.044 86.884-14.341 30.379-10.23 61.738-16.397 92.763-24.189 50.767-12.716 106.1-33.463 134.185-80.836 6.979-11.951 12.644-25.719 10.851-39.75-1.721-13.48-10.469-25.263-19.719-34.729a121.325 121.325 0 00-69.817-34.442c-14.532-1.96-28.993-.622-42.139 6.143-7.171 3.704-13.863 8.317-20.675 12.62a1434.766 1434.766 0 01-20.388 12.668 1567.055 1567.055 0 01-84.374 48.019c-14.126 7.529-28.395 14.819-42.713 21.989-12.907 6.478-25.79 13.027-38.028 20.699-11.664 7.314-23.471 15.728-32.578 26.292a19.253 19.253 0 00-5.473 15.226c.812 6.621 4.78 12.501 9.106 17.448 17.066 19.552 42.211 30.284 67.475 34.108 30.666 4.613 61.763-.908 91.616-7.983 31.742-7.553 63.555-15.703 94.436-26.292 12.979-4.494 26.555-9.107 37.622-17.52 11.067-8.414 16.946-20.962 22.3-33.702 10.661-25.336 17.449-54.4 5.88-80.645a55.617 55.617 0 00-22.635-26.148 59.754 59.754 0 00-37.908-6.143c-29.686 4.159-53.947 24.715-78.303 40.633-13.289 8.629-26.865 16.731-40.92 24.189a384.03 384.03 0 01-40.752 17.974c-23.472 8.963-48.641 17.759-66.543 36.235-8.414 8.677-16.851 20.867-12.381 33.463 4.278 12.118 17.089 21.057 27.798 27.128 26.292 14.844 57.221 16.373 86.548 12.286a452.65 452.65 0 0048.425-10.182c15.895-4.016 31.718-8.294 47.422-13.003a893.723 893.723 0 0023.734-7.433 131.308 131.308 0 0018.883-6.956c4.063-2.103 8.27-5.139 9.776-9.56a14.355 14.355 0 00-2.51-12.19c-2.582-3.968-6.023-7.314-8.533-11.33-3.705-5.88-2.39-10.995 3.322-15.082 10.517-7.553 21.512-14.867 27.655-26.77 10.971-21.512-2.247-47.66-23.4-56.743a59.133 59.133 0 00-37.502-2.39c-13.839 3.49-25.647 11.712-37.048 19.958a382.596 382.596 0 01-80.43 44.792c-13.863 5.593-28.061 9.847-42.33 14.341-12.501 3.872-25.24 9.131-33.463 19.815a31.075 31.075 0 00-2.82 33.606c5.951 11.712 17.496 19.121 29.566 23.4 29.113 10.493 61.404 7.314 91.186 1.744a344.04 344.04 0 0046.633-11.951c13.361-4.517 27.941-9.369 39.27-17.998 9.155-6.955 16.086-18.093 13.959-29.996a20.96 20.96 0 00-2.868-7.386c-1.96-3.131-4.996-6.645-2.271-10.326 2.725-3.681 9.155-4.78 13.385-6.62 9.561-4.088 12.716-15.226 9.083-24.62-4.494-11.544-17.233-19.814-28.156-24.451-14.103-5.975-27.966-1.936-41.112 4.494-14.341 6.979-28.204 14.484-42.569 21.248a919.786 919.786 0 01-45.987 20.197c-13.218 5.402-26.961 9.872-39.701 16.325a74.84 74.84 0 00-16.206 10.732c-3.824 3.442-9.56 8.581-8.867 14.341.693 5.761 6.501 10.302 10.015 14.126a127.136 127.136 0 0015.393 14.652 58.7 58.7 0 0036.665 12.668c15.393 0 31.072-3.179 46.011-6.597a346.606 346.606 0 0046.011-14.197c9.896-3.777 21.129-8.94 26.436-18.692 3.226-5.927 2.39-11.951 2.39-18.571a26.984 26.984 0 017.457-18.572c3.825-4.422 8.294-8.246 12.214-12.573 3.538-3.896 7.386-8.604 7.888-14.054.932-10.397-10.708-15.369-19.122-16.468-12.979-1.697-26.961 1.769-39.127 6.023a327.817 327.817 0 00-37.287 16.731 354.876 354.876 0 01-39.486 17.21c-11.616 4.135-23.734 8.27-33.463 16.229-8.652 7.171-16.898 19.528-7.576 29.519a56.048 56.048 0 0016.181 10.803 97.124 97.124 0 0019.934 7.171 116.51 116.51 0 0041.685 2.056 168.353 168.353 0 0043.956-12.214 141.757 141.757 0 0019.121-9.083c3.538-2.151 6.597-5.641 4.924-9.967-1.41-3.729-5.067-6.143-7.744-8.892a8.287 8.287 0 01-3.036-5.497c0-4.207 4.781-5.33 8.175-6.023 10.994-2.39 22.754-8.557 25.049-20.58.982-4.772.128-9.74-2.39-13.911a18.199 18.199 0 00-13.338-7.6 84.727 84.727 0 00-21.153.597 170.346 170.346 0 00-20.794 3.824c-29.137 7.171-56.05 21.13-82.223 35.423-8.748 4.78-24.738 10.971-22.276 23.711 2.629 13.648 19.121 16.516 30.474 18.38a180.82 180.82 0 0067.428-1.649 102.16 102.16 0 0021.248-6.191c4.303-1.984 9.298-5.306 10.804-10.086 1.506-4.781-1.53-7.983-4.78-10.78-1.865-1.625-4.518-3.442-5.235-5.951-1.434-5.092 5.784-7.434 9.394-8.342 6.357-1.578 13.337-1.195 19.36-4.064 4.326-2.031 8.676-5.856 9.561-10.803a9.778 9.778 0 00-5.856-10.278 26.823 26.823 0 00-14.341-1.339c-7.29.933-14.556 2.678-21.799 4.064-15.751 3.011-31.598 5.736-47.254 9.226a149.642 149.642 0 00-39.079 13.481 83.49 83.49 0 00-9.346 5.832 14.77 14.77 0 00-5.139 5.162c-2.39 4.996 3.155 10.183 6.406 13.29a57.36 57.36 0 0032.698 14.341c15.01 1.84 30.14-1.219 44.577-5.067a599.184 599.184 0 0011.64-3.275 18.933 18.933 0 006.836-3.035c3.752-3.036 2.605-7.171.478-10.828a17.105 17.105 0 01-3.37-7.17c-.215-3.992 4.063-5.689 7.17-7.004 6.502-2.844 13.505-4.278 20.15-6.812 4.78-1.816 10.66-4.326 13.552-8.7 2.892-4.374.645-9.346-3.155-12.118-4.781-3.466-11.091-2.701-16.54-2.032l-24.619 3.06-48.306 6.095c-.406 0-.597.693-.119.764 14.747 2.558 29.949 5.139 44.863 2.606a78.863 78.863 0 0020.699-7.458c6.693-3.155 14.222-5.712 21.201-1.912 6.334 3.466 7.792 11.091 2.391 16.11-4.637 4.231-10.971 5.378-16.732 6.788a28.084 28.084 0 00-13.887 6.693 10.585 10.585 0 00-2.82 4.78c-.908 3.585.789 6.86.717 10.445-.167 8.868-13.003 12.668-19.719 14.867a89.514 89.514 0 01-27.846 4.422l.287.669c11.951-10.588 31.072-6.549 41.398-19.743a15.225 15.225 0 003.394-8.102 19.516 19.516 0 00-.597-5.139c-.431-2.223-1.004-4.111 1.482-5.88a19.575 19.575 0 013.776-1.554l29.28-11.473a.413.413 0 00.253-.231.413.413 0 00-.014-.342l-5.33-10.708a.411.411 0 00-.431-.192c-21.774 7.888-46.345 16.254-69.076 7.171-.478-.191-.669.574-.215.765l-.191.048z"/></mask><path d="M247.064 131.395a66.12 66.12 0 0036.307 2.557 146.953 146.953 0 0018.882-4.78c3.107-.98 6.191-2.032 9.25-3.108 1.028-.358 3.036-1.625 4.063-1.457 1.626.286 2.534 3.489 3.203 4.78.383.765 2.391 3.633 2.175 4.374-.263 1.386-2.39 1.649-3.609 2.103l-10.875 4.207-9.226 3.609a52.299 52.299 0 00-8.82 3.562c-4.255 2.677-1.004 7.744-1.315 11.688-.478 6.166-5.569 10.923-10.636 13.863-10.684 6.166-24.332 4.78-33.893 13.432a.386.386 0 00-.103.427.38.38 0 00.366.243 90.643 90.643 0 0024.93-3.49c6.621-1.912 14.604-4.35 19.814-9.154a10.593 10.593 0 003.562-6.406c.478-4.063-1.865-7.888-.502-11.951 2.199-6.621 10.612-9.154 16.731-10.541 8.055-1.816 24.786-6.931 19.337-18.715-2.151-4.78-7.601-7.17-12.477-7.505-7.338-.502-14.126 3.729-20.484 6.693-18.787 8.724-39.701 5.473-59.348 2.055v.789l46.895-5.832 23.448-2.94c6.979-.861 16.731-2.629 21.177 4.493 8.39 13.433-22.731 19.361-30.451 22.277-3.609 1.362-9.561 3.131-10.23 7.601-.669 4.469 3.227 7.744 4.78 11.305 3.466 8.39-8.078 10.23-13.648 11.808-7.385 2.079-14.795 4.063-22.348 5.425-13.72 2.391-27.965 2.845-41.302-1.673a52.577 52.577 0 01-16.971-9.369 41.398 41.398 0 01-6.668-7.171 7.692 7.692 0 01-2.127-5.521 9.847 9.847 0 014.397-5.617c10.948-8.246 24.117-13.289 37.216-16.899 13.648-3.752 27.63-6.142 41.517-8.795l22.874-4.351a130.185 130.185 0 0120.508-3.37c5.139-.143 11.784.646 14.341 5.737 3.729 7.17-3.537 13.91-9.704 16.205-6.167 2.295-13.218 1.841-19.576 3.872-3.513 1.124-8.676 3.394-8.174 7.912.454 4.063 5.211 6.453 7.744 9.13 5.713 6.023.861 12.453-4.947 15.991-5.809 3.537-13.218 5.162-19.887 6.788a180.094 180.094 0 01-67.475 3.226c-11.951-1.72-33.63-4.445-33.94-20.507-.144-7.171 5.951-11.593 11.449-14.819 5.975-3.49 12.118-6.717 18.213-9.991 12.596-6.789 25.36-13.29 38.53-18.931a225.93 225.93 0 0141.087-13.528 159.453 159.453 0 0121.775-3.203c6.525-.478 13.719-1.1 19.958 1.267a15.97 15.97 0 0110.182 15.369 21.368 21.368 0 01-7.649 16.109 37.775 37.775 0 01-17.616 7.864c-3.441.741-7.911 2.056-8.317 6.239-.813 8.031 14.843 11.234 10.66 19.91-1.41 2.94-4.781 4.517-7.553 5.928a525.762 525.762 0 01-9.824 4.78 204.039 204.039 0 01-21.201 8.294c-26.889 8.724-56.647 10.875-83.322.215-11.568-4.613-31.622-13.863-24.929-29.375 5.186-11.951 18.595-19.122 30.092-23.687 11.497-4.565 23.352-8.294 34.682-13.409 12.19-5.545 23.902-11.951 36.115-17.544a152.492 152.492 0 0137.861-12.955c11.019-1.912 25.934-3.274 34.825 5.115 10.804 10.23-3.657 23.041-10.899 30.236a54.117 54.117 0 00-9.848 11.951 29.852 29.852 0 00-2.844 16.492c.287 7.171-.813 13.194-5.569 18.691a44.417 44.417 0 01-13.935 10.063c-12.74 6.358-26.985 10.493-40.633 14.341a321.662 321.662 0 01-45.055 9.202c-14.341 1.769-29.113 1.578-42.115-5.473-11.449-6.214-20.413-16.038-28.946-25.647-2.748-3.083-6.214-6.74-5.091-11.257a21.642 21.642 0 016.43-9.131 68.046 68.046 0 0115.966-11.425c12.214-6.573 25.599-10.875 38.435-16.062a933.541 933.541 0 0041.063-17.712 1011.83 1011.83 0 0040.633-19.814c13.218-6.86 27.846-15.393 43.31-12.094a56.234 56.234 0 0119.122 8.891 43.623 43.623 0 0114.341 14.15 21.367 21.367 0 011.817 17.879c-2.223 6.071-7.171 8.509-12.86 10.588-3.322 1.195-7.529 2.39-9.752 5.378-2.916 3.92.12 7.72 2.247 11.138 7.673 12.238.383 27.32-9.728 35.495-10.947 8.867-25.408 13.671-38.554 18.189a334.309 334.309 0 01-42.712 11.521c-29.567 5.975-61.261 9.775-90.684 1.147-13.146-3.848-26.292-10.613-33.463-22.779a30.693 30.693 0 013.944-37.526c9.561-10.325 23.233-14.651 36.331-18.5a401.082 401.082 0 0039.677-13.791 364.554 364.554 0 0073.116-41.063c11.497-8.247 22.994-17.114 36.57-21.512a60.329 60.329 0 0138.506-.215c23.902 8.39 38.482 37.358 24.236 60.065A60.802 60.802 0 01356.63 137.8c-2.677 2.199-5.498 4.231-8.342 6.215a46.778 46.778 0 00-6.812 5.019c-6.573 6.597-.813 14.054 3.777 19.719 2.987 3.729 6.596 7.888 6.979 12.859.502 6.382-4.78 10.685-9.895 13.314a130.251 130.251 0 01-19.122 7.051 864.387 864.387 0 01-22.085 6.955c-14.604 4.374-29.304 8.39-44.051 12.19-14.748 3.801-29.806 7.505-44.96 10.087-29.614 5.019-61.045 5.234-88.604-8.222-11.592-5.641-24.571-14.055-31.073-25.623-7.72-13.935 1.817-28.013 11.736-37.789 17.879-17.664 42.378-26.149 65.348-34.921a419.561 419.561 0 0074.908-37.884c12.119-7.673 23.902-15.943 35.853-23.735s24.332-14.819 38.028-18.643c13.17-3.681 27.607-4.35 40.633.382a51.7 51.7 0 0127.464 24.595c13.432 24.906 8.485 53.899-1.363 79.115-5.139 13.17-10.732 27.44-21.75 36.857-10.183 8.7-23.114 13.481-35.566 17.903-28.97 10.301-58.823 17.998-88.629 25.407-29.805 7.41-60.089 14.007-90.827 11.664-25.192-1.936-50.791-10.277-69.913-27.248-9.56-8.58-22.802-23.113-13.743-36.45a76.785 76.785 0 0114.675-14.652 185.145 185.145 0 0117.042-12.453c23.472-15.225 49.406-26.531 74.096-39.51a1630.282 1630.282 0 0079.283-44.41 1831.112 1831.112 0 0038.936-23.901 184.461 184.461 0 0118.715-11.115 60.616 60.616 0 0122.564-5.832c25.981-1.649 53.659 8.605 74.239 24.141a94.775 94.775 0 0126.698 29.854c7.649 14.34 6.167 29.638-.263 44.051-10.23 22.994-28.825 41.47-49.596 55.142-47.493 31.287-105.025 37.693-158.637 52.584-28.204 7.863-55.739 21.153-85.258 23.161a83.4 83.4 0 01-39.534-6.048c-12.19-5.425-21.224-14.891-29.805-24.786-4.183-4.78-8.318-9.704-12.835-14.198a134.773 134.773 0 00-13.003-10.899c-8.485-6.501-20.03-14.915-19.122-27.009.598-7.027 5.522-12.62 10.589-17.09a157.977 157.977 0 0116.731-12.692 262.218 262.218 0 0135.375-19.456c25.384-11.759 51.843-21.057 77.49-32.243 27.607-11.951 54.663-25.336 81.123-39.725 12.979-7.17 25.766-14.509 38.553-21.99a106.804 106.804 0 0120.15-9.8 86.616 86.616 0 0122.348-3.872c25.83-1.51 51.74.907 76.845 7.17 24.236 6.215 47.803 17.377 65.347 35.519 9.728 10.015 17.329 23.017 14.556 37.454-2.653 13.72-12.309 25.432-21.511 35.423-19.122 20.77-43.024 36.737-66.734 51.915a728.278 728.278 0 01-74.407 42.115 565.556 565.556 0 01-79.019 31.693c-28.874 9.035-58.942 16.254-89.322 17.018a199.02 199.02 0 01-86.38-17.878c-12.382-5.569-25.074-11.951-34.491-22.038a45.957 45.957 0 01-10.422-18.213c-2.222-7.433-1.386-14.341.383-21.703 1.314-5.473 2.127-10.995-.31-16.301a44.08 44.08 0 00-8.797-11.257c-3.705-3.825-7.72-7.84-9.37-13.051-2.127-6.692.67-13.218 4.972-18.333a76.025 76.025 0 0115.178-12.739 512.92 512.92 0 0117.879-11.951 616.6 616.6 0 0136.498-21.75 837.387 837.387 0 01161.074-67.356C293.314 2.587 353.738-6.686 411.437 8.348a186.2 186.2 0 0139.964 15.058c11.807 6.19 22.922 14.604 28.945 26.818 12.501 25.36 1.625 54.496-13.528 75.984a360.882 360.882 0 01-27.201 32.865 251.1 251.1 0 01-29.997 29.232c-23.113 18.428-51.245 27.463-78.135 38.793-26.292 11.018-51.628 23.662-77.896 34.442a377.558 377.558 0 01-39.749 14.15c-14.341 4.064-29.495 6.525-44.051 2.175-.478-.143-.693.622-.215.765 14.676 4.374 30.045 1.936 44.481-2.175a398.845 398.845 0 0044.864-16.277c29.017-12.214 57.197-26.292 86.453-37.908a414.257 414.257 0 0041.183-17.951 162.488 162.488 0 0035.446-25.766 430.515 430.515 0 0030.595-33.08 180.366 180.366 0 0024.595-34.801c11.712-22.97 14.341-53.015-4.78-72.997-9.179-9.704-21.512-15.894-33.606-20.985a210.355 210.355 0 00-43.908-12.764C333.063-7.212 270.464 6.89 211.976 26.896c-57.938 19.79-114.61 44.481-166.596 77.011-6.374 4-12.684 8.111-18.93 12.334a148.497 148.497 0 00-16.134 11.951c-8.223 7.409-14.03 17.95-7.505 28.395 6.023 9.561 18.476 15.799 17.52 28.682-.55 7.625-3.777 14.509-2.964 22.277a41.014 41.014 0 006.238 17.472c7.338 11.76 19.409 19.48 31.527 25.599a214.174 214.174 0 0041.422 15.895c30.785 8.222 62.431 7.935 93.623 2.199 59.755-10.971 116.88-35.542 169.345-65.539a637.871 637.871 0 0074.717-48.879 206.647 206.647 0 0032.507-30.643c8.365-10.015 16.731-21.965 16.875-35.518.143-13.552-7.745-24.69-16.732-33.606a122.498 122.498 0 00-31.359-22.133c-23.185-11.616-49.118-16.731-74.813-18.715a215.429 215.429 0 00-43.358 0 74.318 74.318 0 00-20.006 5.306 177.232 177.232 0 00-19.886 10.78 1118.196 1118.196 0 01-85.234 45.413c-28.324 13.433-57.365 24.715-86.381 36.69-25.79 10.66-52.585 22.826-73.427 41.78-8.222 7.458-13.48 17.783-7.41 28.3 5.785 10.039 16.875 15.871 25.36 23.28 10.326 9.059 18.118 20.508 28.037 29.973a67.67 67.67 0 0033.797 17.736c29.83 6.023 59.038-5.044 86.884-14.341 30.379-10.23 61.738-16.397 92.763-24.189 50.767-12.716 106.1-33.463 134.185-80.836 6.979-11.951 12.644-25.719 10.851-39.75-1.721-13.48-10.469-25.263-19.719-34.729a121.325 121.325 0 00-69.817-34.442c-14.532-1.96-28.993-.622-42.139 6.143-7.171 3.704-13.863 8.317-20.675 12.62a1434.766 1434.766 0 01-20.388 12.668 1567.055 1567.055 0 01-84.374 48.019c-14.126 7.529-28.395 14.819-42.713 21.989-12.907 6.478-25.79 13.027-38.028 20.699-11.664 7.314-23.471 15.728-32.578 26.292a19.253 19.253 0 00-5.473 15.226c.812 6.621 4.78 12.501 9.106 17.448 17.066 19.552 42.211 30.284 67.475 34.108 30.666 4.613 61.763-.908 91.616-7.983 31.742-7.553 63.555-15.703 94.436-26.292 12.979-4.494 26.555-9.107 37.622-17.52 11.067-8.414 16.946-20.962 22.3-33.702 10.661-25.336 17.449-54.4 5.88-80.645a55.617 55.617 0 00-22.635-26.148 59.754 59.754 0 00-37.908-6.143c-29.686 4.159-53.947 24.715-78.303 40.633-13.289 8.629-26.865 16.731-40.92 24.189a384.03 384.03 0 01-40.752 17.974c-23.472 8.963-48.641 17.759-66.543 36.235-8.414 8.677-16.851 20.867-12.381 33.463 4.278 12.118 17.089 21.057 27.798 27.128 26.292 14.844 57.221 16.373 86.548 12.286a452.65 452.65 0 0048.425-10.182c15.895-4.016 31.718-8.294 47.422-13.003a893.723 893.723 0 0023.734-7.433 131.308 131.308 0 0018.883-6.956c4.063-2.103 8.27-5.139 9.776-9.56a14.355 14.355 0 00-2.51-12.19c-2.582-3.968-6.023-7.314-8.533-11.33-3.705-5.88-2.39-10.995 3.322-15.082 10.517-7.553 21.512-14.867 27.655-26.77 10.971-21.512-2.247-47.66-23.4-56.743a59.133 59.133 0 00-37.502-2.39c-13.839 3.49-25.647 11.712-37.048 19.958a382.596 382.596 0 01-80.43 44.792c-13.863 5.593-28.061 9.847-42.33 14.341-12.501 3.872-25.24 9.131-33.463 19.815a31.075 31.075 0 00-2.82 33.606c5.951 11.712 17.496 19.121 29.566 23.4 29.113 10.493 61.404 7.314 91.186 1.744a344.04 344.04 0 0046.633-11.951c13.361-4.517 27.941-9.369 39.27-17.998 9.155-6.955 16.086-18.093 13.959-29.996a20.96 20.96 0 00-2.868-7.386c-1.96-3.131-4.996-6.645-2.271-10.326 2.725-3.681 9.155-4.78 13.385-6.62 9.561-4.088 12.716-15.226 9.083-24.62-4.494-11.544-17.233-19.814-28.156-24.451-14.103-5.975-27.966-1.936-41.112 4.494-14.341 6.979-28.204 14.484-42.569 21.248a919.786 919.786 0 01-45.987 20.197c-13.218 5.402-26.961 9.872-39.701 16.325a74.84 74.84 0 00-16.206 10.732c-3.824 3.442-9.56 8.581-8.867 14.341.693 5.761 6.501 10.302 10.015 14.126a127.136 127.136 0 0015.393 14.652 58.7 58.7 0 0036.665 12.668c15.393 0 31.072-3.179 46.011-6.597a346.606 346.606 0 0046.011-14.197c9.896-3.777 21.129-8.94 26.436-18.692 3.226-5.927 2.39-11.951 2.39-18.571a26.984 26.984 0 017.457-18.572c3.825-4.422 8.294-8.246 12.214-12.573 3.538-3.896 7.386-8.604 7.888-14.054.932-10.397-10.708-15.369-19.122-16.468-12.979-1.697-26.961 1.769-39.127 6.023a327.817 327.817 0 00-37.287 16.731 354.876 354.876 0 01-39.486 17.21c-11.616 4.135-23.734 8.27-33.463 16.229-8.652 7.171-16.898 19.528-7.576 29.519a56.048 56.048 0 0016.181 10.803 97.124 97.124 0 0019.934 7.171 116.51 116.51 0 0041.685 2.056 168.353 168.353 0 0043.956-12.214 141.757 141.757 0 0019.121-9.083c3.538-2.151 6.597-5.641 4.924-9.967-1.41-3.729-5.067-6.143-7.744-8.892a8.287 8.287 0 01-3.036-5.497c0-4.207 4.781-5.33 8.175-6.023 10.994-2.39 22.754-8.557 25.049-20.58.982-4.772.128-9.74-2.39-13.911a18.199 18.199 0 00-13.338-7.6 84.727 84.727 0 00-21.153.597 170.346 170.346 0 00-20.794 3.824c-29.137 7.171-56.05 21.13-82.223 35.423-8.748 4.78-24.738 10.971-22.276 23.711 2.629 13.648 19.121 16.516 30.474 18.38a180.82 180.82 0 0067.428-1.649 102.16 102.16 0 0021.248-6.191c4.303-1.984 9.298-5.306 10.804-10.086 1.506-4.781-1.53-7.983-4.78-10.78-1.865-1.625-4.518-3.442-5.235-5.951-1.434-5.092 5.784-7.434 9.394-8.342 6.357-1.578 13.337-1.195 19.36-4.064 4.326-2.031 8.676-5.856 9.561-10.803a9.778 9.778 0 00-5.856-10.278 26.823 26.823 0 00-14.341-1.339c-7.29.933-14.556 2.678-21.799 4.064-15.751 3.011-31.598 5.736-47.254 9.226a149.642 149.642 0 00-39.079 13.481 83.49 83.49 0 00-9.346 5.832 14.77 14.77 0 00-5.139 5.162c-2.39 4.996 3.155 10.183 6.406 13.29a57.36 57.36 0 0032.698 14.341c15.01 1.84 30.14-1.219 44.577-5.067a599.184 599.184 0 0011.64-3.275 18.933 18.933 0 006.836-3.035c3.752-3.036 2.605-7.171.478-10.828a17.105 17.105 0 01-3.37-7.17c-.215-3.992 4.063-5.689 7.17-7.004 6.502-2.844 13.505-4.278 20.15-6.812 4.78-1.816 10.66-4.326 13.552-8.7 2.892-4.374.645-9.346-3.155-12.118-4.781-3.466-11.091-2.701-16.54-2.032l-24.619 3.06-48.306 6.095c-.406 0-.597.693-.119.764 14.747 2.558 29.949 5.139 44.863 2.606a78.863 78.863 0 0020.699-7.458c6.693-3.155 14.222-5.712 21.201-1.912 6.334 3.466 7.792 11.091 2.391 16.11-4.637 4.231-10.971 5.378-16.732 6.788a28.084 28.084 0 00-13.887 6.693 10.585 10.585 0 00-2.82 4.78c-.908 3.585.789 6.86.717 10.445-.167 8.868-13.003 12.668-19.719 14.867a89.514 89.514 0 01-27.846 4.422l.287.669c11.951-10.588 31.072-6.549 41.398-19.743a15.225 15.225 0 003.394-8.102 19.516 19.516 0 00-.597-5.139c-.431-2.223-1.004-4.111 1.482-5.88a19.575 19.575 0 013.776-1.554l29.28-11.473a.413.413 0 00.253-.231.413.413 0 00-.014-.342l-5.33-10.708a.411.411 0 00-.431-.192c-21.774 7.888-46.345 16.254-69.076 7.171-.478-.191-.669.574-.215.765l-.191.048z" fill="#EB5482"/><path d="M247.064 131.395a66.12 66.12 0 0036.307 2.557 146.953 146.953 0 0018.882-4.78c3.107-.98 6.191-2.032 9.25-3.108 1.028-.358 3.036-1.625 4.063-1.457 1.626.286 2.534 3.489 3.203 4.78.383.765 2.391 3.633 2.175 4.374-.263 1.386-2.39 1.649-3.609 2.103l-10.875 4.207-9.226 3.609a52.299 52.299 0 00-8.82 3.562c-4.255 2.677-1.004 7.744-1.315 11.688-.478 6.166-5.569 10.923-10.636 13.863-10.684 6.166-24.332 4.78-33.893 13.432a.386.386 0 00-.103.427.38.38 0 00.366.243 90.643 90.643 0 0024.93-3.49c6.621-1.912 14.604-4.35 19.814-9.154a10.593 10.593 0 003.562-6.406c.478-4.063-1.865-7.888-.502-11.951 2.199-6.621 10.612-9.154 16.731-10.541 8.055-1.816 24.786-6.931 19.337-18.715-2.151-4.78-7.601-7.17-12.477-7.505-7.338-.502-14.126 3.729-20.484 6.693-18.787 8.724-39.701 5.473-59.348 2.055v.789l46.895-5.832 23.448-2.94c6.979-.861 16.731-2.629 21.177 4.493 8.39 13.433-22.731 19.361-30.451 22.277-3.609 1.362-9.561 3.131-10.23 7.601-.669 4.469 3.227 7.744 4.78 11.305 3.466 8.39-8.078 10.23-13.648 11.808-7.385 2.079-14.795 4.063-22.348 5.425-13.72 2.391-27.965 2.845-41.302-1.673a52.577 52.577 0 01-16.971-9.369 41.398 41.398 0 01-6.668-7.171 7.692 7.692 0 01-2.127-5.521 9.847 9.847 0 014.397-5.617c10.948-8.246 24.117-13.289 37.216-16.899 13.648-3.752 27.63-6.142 41.517-8.795l22.874-4.351a130.185 130.185 0 0120.508-3.37c5.139-.143 11.784.646 14.341 5.737 3.729 7.17-3.537 13.91-9.704 16.205-6.167 2.295-13.218 1.841-19.576 3.872-3.513 1.124-8.676 3.394-8.174 7.912.454 4.063 5.211 6.453 7.744 9.13 5.713 6.023.861 12.453-4.947 15.991-5.809 3.537-13.218 5.162-19.887 6.788a180.094 180.094 0 01-67.475 3.226c-11.951-1.72-33.63-4.445-33.94-20.507-.144-7.171 5.951-11.593 11.449-14.819 5.975-3.49 12.118-6.717 18.213-9.991 12.596-6.789 25.36-13.29 38.53-18.931a225.93 225.93 0 0141.087-13.528 159.453 159.453 0 0121.775-3.203c6.525-.478 13.719-1.1 19.958 1.267a15.97 15.97 0 0110.182 15.369 21.368 21.368 0 01-7.649 16.109 37.775 37.775 0 01-17.616 7.864c-3.441.741-7.911 2.056-8.317 6.239-.813 8.031 14.843 11.234 10.66 19.91-1.41 2.94-4.781 4.517-7.553 5.928a525.762 525.762 0 01-9.824 4.78 204.039 204.039 0 01-21.201 8.294c-26.889 8.724-56.647 10.875-83.322.215-11.568-4.613-31.622-13.863-24.929-29.375 5.186-11.951 18.595-19.122 30.092-23.687 11.497-4.565 23.352-8.294 34.682-13.409 12.19-5.545 23.902-11.951 36.115-17.544a152.492 152.492 0 0137.861-12.955c11.019-1.912 25.934-3.274 34.825 5.115 10.804 10.23-3.657 23.041-10.899 30.236a54.117 54.117 0 00-9.848 11.951 29.852 29.852 0 00-2.844 16.492c.287 7.171-.813 13.194-5.569 18.691a44.417 44.417 0 01-13.935 10.063c-12.74 6.358-26.985 10.493-40.633 14.341a321.662 321.662 0 01-45.055 9.202c-14.341 1.769-29.113 1.578-42.115-5.473-11.449-6.214-20.413-16.038-28.946-25.647-2.748-3.083-6.214-6.74-5.091-11.257a21.642 21.642 0 016.43-9.131 68.046 68.046 0 0115.966-11.425c12.214-6.573 25.599-10.875 38.435-16.062a933.541 933.541 0 0041.063-17.712 1011.83 1011.83 0 0040.633-19.814c13.218-6.86 27.846-15.393 43.31-12.094a56.234 56.234 0 0119.122 8.891 43.623 43.623 0 0114.341 14.15 21.367 21.367 0 011.817 17.879c-2.223 6.071-7.171 8.509-12.86 10.588-3.322 1.195-7.529 2.39-9.752 5.378-2.916 3.92.12 7.72 2.247 11.138 7.673 12.238.383 27.32-9.728 35.495-10.947 8.867-25.408 13.671-38.554 18.189a334.309 334.309 0 01-42.712 11.521c-29.567 5.975-61.261 9.775-90.684 1.147-13.146-3.848-26.292-10.613-33.463-22.779a30.693 30.693 0 013.944-37.526c9.561-10.325 23.233-14.651 36.331-18.5a401.082 401.082 0 0039.677-13.791 364.554 364.554 0 0073.116-41.063c11.497-8.247 22.994-17.114 36.57-21.512a60.329 60.329 0 0138.506-.215c23.902 8.39 38.482 37.358 24.236 60.065A60.802 60.802 0 01356.63 137.8c-2.677 2.199-5.498 4.231-8.342 6.215a46.778 46.778 0 00-6.812 5.019c-6.573 6.597-.813 14.054 3.777 19.719 2.987 3.729 6.596 7.888 6.979 12.859.502 6.382-4.78 10.685-9.895 13.314a130.251 130.251 0 01-19.122 7.051 864.387 864.387 0 01-22.085 6.955c-14.604 4.374-29.304 8.39-44.051 12.19-14.748 3.801-29.806 7.505-44.96 10.087-29.614 5.019-61.045 5.234-88.604-8.222-11.592-5.641-24.571-14.055-31.073-25.623-7.72-13.935 1.817-28.013 11.736-37.789 17.879-17.664 42.378-26.149 65.348-34.921a419.561 419.561 0 0074.908-37.884c12.119-7.673 23.902-15.943 35.853-23.735s24.332-14.819 38.028-18.643c13.17-3.681 27.607-4.35 40.633.382a51.7 51.7 0 0127.464 24.595c13.432 24.906 8.485 53.899-1.363 79.115-5.139 13.17-10.732 27.44-21.75 36.857-10.183 8.7-23.114 13.481-35.566 17.903-28.97 10.301-58.823 17.998-88.629 25.407-29.805 7.41-60.089 14.007-90.827 11.664-25.192-1.936-50.791-10.277-69.913-27.248-9.56-8.58-22.802-23.113-13.743-36.45a76.785 76.785 0 0114.675-14.652 185.145 185.145 0 0117.042-12.453c23.472-15.225 49.406-26.531 74.096-39.51a1630.282 1630.282 0 0079.283-44.41 1831.112 1831.112 0 0038.936-23.901 184.461 184.461 0 0118.715-11.115 60.616 60.616 0 0122.564-5.832c25.981-1.649 53.659 8.605 74.239 24.141a94.775 94.775 0 0126.698 29.854c7.649 14.34 6.167 29.638-.263 44.051-10.23 22.994-28.825 41.47-49.596 55.142-47.493 31.287-105.025 37.693-158.637 52.584-28.204 7.863-55.739 21.153-85.258 23.161a83.4 83.4 0 01-39.534-6.048c-12.19-5.425-21.224-14.891-29.805-24.786-4.183-4.78-8.318-9.704-12.835-14.198a134.773 134.773 0 00-13.003-10.899c-8.485-6.501-20.03-14.915-19.122-27.009.598-7.027 5.522-12.62 10.589-17.09a157.977 157.977 0 0116.731-12.692 262.218 262.218 0 0135.375-19.456c25.384-11.759 51.843-21.057 77.49-32.243 27.607-11.951 54.663-25.336 81.123-39.725 12.979-7.17 25.766-14.509 38.553-21.99a106.804 106.804 0 0120.15-9.8 86.616 86.616 0 0122.348-3.872c25.83-1.51 51.74.907 76.845 7.17 24.236 6.215 47.803 17.377 65.347 35.519 9.728 10.015 17.329 23.017 14.556 37.454-2.653 13.72-12.309 25.432-21.511 35.423-19.122 20.77-43.024 36.737-66.734 51.915a728.278 728.278 0 01-74.407 42.115 565.556 565.556 0 01-79.019 31.693c-28.874 9.035-58.942 16.254-89.322 17.018a199.02 199.02 0 01-86.38-17.878c-12.382-5.569-25.074-11.951-34.491-22.038a45.957 45.957 0 01-10.422-18.213c-2.222-7.433-1.386-14.341.383-21.703 1.314-5.473 2.127-10.995-.31-16.301a44.08 44.08 0 00-8.797-11.257c-3.705-3.825-7.72-7.84-9.37-13.051-2.127-6.692.67-13.218 4.972-18.333a76.025 76.025 0 0115.178-12.739 512.92 512.92 0 0117.879-11.951 616.6 616.6 0 0136.498-21.75 837.387 837.387 0 01161.074-67.356C293.314 2.587 353.738-6.686 411.437 8.348a186.2 186.2 0 0139.964 15.058c11.807 6.19 22.922 14.604 28.945 26.818 12.501 25.36 1.625 54.496-13.528 75.984a360.882 360.882 0 01-27.201 32.865 251.1 251.1 0 01-29.997 29.232c-23.113 18.428-51.245 27.463-78.135 38.793-26.292 11.018-51.628 23.662-77.896 34.442a377.558 377.558 0 01-39.749 14.15c-14.341 4.064-29.495 6.525-44.051 2.175-.478-.143-.693.622-.215.765 14.676 4.374 30.045 1.936 44.481-2.175a398.845 398.845 0 0044.864-16.277c29.017-12.214 57.197-26.292 86.453-37.908a414.257 414.257 0 0041.183-17.951 162.488 162.488 0 0035.446-25.766 430.515 430.515 0 0030.595-33.08 180.366 180.366 0 0024.595-34.801c11.712-22.97 14.341-53.015-4.78-72.997-9.179-9.704-21.512-15.894-33.606-20.985a210.355 210.355 0 00-43.908-12.764C333.063-7.212 270.464 6.89 211.976 26.896c-57.938 19.79-114.61 44.481-166.596 77.011-6.374 4-12.684 8.111-18.93 12.334a148.497 148.497 0 00-16.134 11.951c-8.223 7.409-14.03 17.95-7.505 28.395 6.023 9.561 18.476 15.799 17.52 28.682-.55 7.625-3.777 14.509-2.964 22.277a41.014 41.014 0 006.238 17.472c7.338 11.76 19.409 19.48 31.527 25.599a214.174 214.174 0 0041.422 15.895c30.785 8.222 62.431 7.935 93.623 2.199 59.755-10.971 116.88-35.542 169.345-65.539a637.871 637.871 0 0074.717-48.879 206.647 206.647 0 0032.507-30.643c8.365-10.015 16.731-21.965 16.875-35.518.143-13.552-7.745-24.69-16.732-33.606a122.498 122.498 0 00-31.359-22.133c-23.185-11.616-49.118-16.731-74.813-18.715a215.429 215.429 0 00-43.358 0 74.318 74.318 0 00-20.006 5.306 177.232 177.232 0 00-19.886 10.78 1118.196 1118.196 0 01-85.234 45.413c-28.324 13.433-57.365 24.715-86.381 36.69-25.79 10.66-52.585 22.826-73.427 41.78-8.222 7.458-13.48 17.783-7.41 28.3 5.785 10.039 16.875 15.871 25.36 23.28 10.326 9.059 18.118 20.508 28.037 29.973a67.67 67.67 0 0033.797 17.736c29.83 6.023 59.038-5.044 86.884-14.341 30.379-10.23 61.738-16.397 92.763-24.189 50.767-12.716 106.1-33.463 134.185-80.836 6.979-11.951 12.644-25.719 10.851-39.75-1.721-13.48-10.469-25.263-19.719-34.729a121.325 121.325 0 00-69.817-34.442c-14.532-1.96-28.993-.622-42.139 6.143-7.171 3.704-13.863 8.317-20.675 12.62a1434.766 1434.766 0 01-20.388 12.668 1567.055 1567.055 0 01-84.374 48.019c-14.126 7.529-28.395 14.819-42.713 21.989-12.907 6.478-25.79 13.027-38.028 20.699-11.664 7.314-23.471 15.728-32.578 26.292a19.253 19.253 0 00-5.473 15.226c.812 6.621 4.78 12.501 9.106 17.448 17.066 19.552 42.211 30.284 67.475 34.108 30.666 4.613 61.763-.908 91.616-7.983 31.742-7.553 63.555-15.703 94.436-26.292 12.979-4.494 26.555-9.107 37.622-17.52 11.067-8.414 16.946-20.962 22.3-33.702 10.661-25.336 17.449-54.4 5.88-80.645a55.617 55.617 0 00-22.635-26.148 59.754 59.754 0 00-37.908-6.143c-29.686 4.159-53.947 24.715-78.303 40.633-13.289 8.629-26.865 16.731-40.92 24.189a384.03 384.03 0 01-40.752 17.974c-23.472 8.963-48.641 17.759-66.543 36.235-8.414 8.677-16.851 20.867-12.381 33.463 4.278 12.118 17.089 21.057 27.798 27.128 26.292 14.844 57.221 16.373 86.548 12.286a452.65 452.65 0 0048.425-10.182c15.895-4.016 31.718-8.294 47.422-13.003a893.723 893.723 0 0023.734-7.433 131.308 131.308 0 0018.883-6.956c4.063-2.103 8.27-5.139 9.776-9.56a14.355 14.355 0 00-2.51-12.19c-2.582-3.968-6.023-7.314-8.533-11.33-3.705-5.88-2.39-10.995 3.322-15.082 10.517-7.553 21.512-14.867 27.655-26.77 10.971-21.512-2.247-47.66-23.4-56.743a59.133 59.133 0 00-37.502-2.39c-13.839 3.49-25.647 11.712-37.048 19.958a382.596 382.596 0 01-80.43 44.792c-13.863 5.593-28.061 9.847-42.33 14.341-12.501 3.872-25.24 9.131-33.463 19.815a31.075 31.075 0 00-2.82 33.606c5.951 11.712 17.496 19.121 29.566 23.4 29.113 10.493 61.404 7.314 91.186 1.744a344.04 344.04 0 0046.633-11.951c13.361-4.517 27.941-9.369 39.27-17.998 9.155-6.955 16.086-18.093 13.959-29.996a20.96 20.96 0 00-2.868-7.386c-1.96-3.131-4.996-6.645-2.271-10.326 2.725-3.681 9.155-4.78 13.385-6.62 9.561-4.088 12.716-15.226 9.083-24.62-4.494-11.544-17.233-19.814-28.156-24.451-14.103-5.975-27.966-1.936-41.112 4.494-14.341 6.979-28.204 14.484-42.569 21.248a919.786 919.786 0 01-45.987 20.197c-13.218 5.402-26.961 9.872-39.701 16.325a74.84 74.84 0 00-16.206 10.732c-3.824 3.442-9.56 8.581-8.867 14.341.693 5.761 6.501 10.302 10.015 14.126a127.136 127.136 0 0015.393 14.652 58.7 58.7 0 0036.665 12.668c15.393 0 31.072-3.179 46.011-6.597a346.606 346.606 0 0046.011-14.197c9.896-3.777 21.129-8.94 26.436-18.692 3.226-5.927 2.39-11.951 2.39-18.571a26.984 26.984 0 017.457-18.572c3.825-4.422 8.294-8.246 12.214-12.573 3.538-3.896 7.386-8.604 7.888-14.054.932-10.397-10.708-15.369-19.122-16.468-12.979-1.697-26.961 1.769-39.127 6.023a327.817 327.817 0 00-37.287 16.731 354.876 354.876 0 01-39.486 17.21c-11.616 4.135-23.734 8.27-33.463 16.229-8.652 7.171-16.898 19.528-7.576 29.519a56.048 56.048 0 0016.181 10.803 97.124 97.124 0 0019.934 7.171 116.51 116.51 0 0041.685 2.056 168.353 168.353 0 0043.956-12.214 141.757 141.757 0 0019.121-9.083c3.538-2.151 6.597-5.641 4.924-9.967-1.41-3.729-5.067-6.143-7.744-8.892a8.287 8.287 0 01-3.036-5.497c0-4.207 4.781-5.33 8.175-6.023 10.994-2.39 22.754-8.557 25.049-20.58.982-4.772.128-9.74-2.39-13.911a18.199 18.199 0 00-13.338-7.6 84.727 84.727 0 00-21.153.597 170.346 170.346 0 00-20.794 3.824c-29.137 7.171-56.05 21.13-82.223 35.423-8.748 4.78-24.738 10.971-22.276 23.711 2.629 13.648 19.121 16.516 30.474 18.38a180.82 180.82 0 0067.428-1.649 102.16 102.16 0 0021.248-6.191c4.303-1.984 9.298-5.306 10.804-10.086 1.506-4.781-1.53-7.983-4.78-10.78-1.865-1.625-4.518-3.442-5.235-5.951-1.434-5.092 5.784-7.434 9.394-8.342 6.357-1.578 13.337-1.195 19.36-4.064 4.326-2.031 8.676-5.856 9.561-10.803a9.778 9.778 0 00-5.856-10.278 26.823 26.823 0 00-14.341-1.339c-7.29.933-14.556 2.678-21.799 4.064-15.751 3.011-31.598 5.736-47.254 9.226a149.642 149.642 0 00-39.079 13.481 83.49 83.49 0 00-9.346 5.832 14.77 14.77 0 00-5.139 5.162c-2.39 4.996 3.155 10.183 6.406 13.29a57.36 57.36 0 0032.698 14.341c15.01 1.84 30.14-1.219 44.577-5.067a599.184 599.184 0 0011.64-3.275 18.933 18.933 0 006.836-3.035c3.752-3.036 2.605-7.171.478-10.828a17.105 17.105 0 01-3.37-7.17c-.215-3.992 4.063-5.689 7.17-7.004 6.502-2.844 13.505-4.278 20.15-6.812 4.78-1.816 10.66-4.326 13.552-8.7 2.892-4.374.645-9.346-3.155-12.118-4.781-3.466-11.091-2.701-16.54-2.032l-24.619 3.06-48.306 6.095c-.406 0-.597.693-.119.764 14.747 2.558 29.949 5.139 44.863 2.606a78.863 78.863 0 0020.699-7.458c6.693-3.155 14.222-5.712 21.201-1.912 6.334 3.466 7.792 11.091 2.391 16.11-4.637 4.231-10.971 5.378-16.732 6.788a28.084 28.084 0 00-13.887 6.693 10.585 10.585 0 00-2.82 4.78c-.908 3.585.789 6.86.717 10.445-.167 8.868-13.003 12.668-19.719 14.867a89.514 89.514 0 01-27.846 4.422l.287.669c11.951-10.588 31.072-6.549 41.398-19.743a15.225 15.225 0 003.394-8.102 19.516 19.516 0 00-.597-5.139c-.431-2.223-1.004-4.111 1.482-5.88a19.575 19.575 0 013.776-1.554l29.28-11.473a.413.413 0 00.253-.231.413.413 0 00-.014-.342l-5.33-10.708a.411.411 0 00-.431-.192c-21.774 7.888-46.345 16.254-69.076 7.171-.478-.191-.669.574-.215.765l-.191.048z" stroke="#EB5482" stroke-width="3" mask="url(#path-1-inside-1)"/></g></svg>