<svg width="1990" height="1024" fill="none" xmlns="http://www.w3.org/2000/svg"><path fill-rule="evenodd" clip-rule="evenodd" d="M672 0H380.566l-19.698 77.235 144.978 640.737H329.351l-21.274 93.785h219.83l25.214 114.277c1.576 6.83 2.364 14.711 2.364 23.643 0 9.457-2.102 17.339-6.304 23.643-4.202 6.305-11.556 12.085-22.062 17.339-14.707 7.881-24.163 14.451-28.365 19.701-4.202 5.26-6.303 13.14-6.303 23.65 0 12.61 4.727 22.85 14.182 30.73 9.456 7.36 22.062 11.04 37.821 11.04H672v.22h1318V0H672zM366.383 363.32l-40.184-163.139-178.07 649.406c-9.455 35.727-21.536 64.362-36.244 85.904-9.455 13.135-19.436 23.643-29.941 31.525-9.98 7.355-25.739 15.762-47.276 25.219C11.557 1002.22 0 1014.83 0 1030.06c0 14.19 5.515 25.49 16.546 33.89 11.556 7.88 27.052 11.83 46.488 11.83h200.132c38.345 0 57.518-13.14 57.518-39.41 0-18.39-8.667-31.52-26.001-39.406l-27.578-12.61c-30.991-14.186-46.487-37.829-46.487-70.93 0-12.61 2.101-26.271 6.303-40.982L366.383 363.32z" fill="#EB5482"/></svg>