<svg width="223" height="14" fill="none" xmlns="http://www.w3.org/2000/svg"><path d="M.653 1.664h6.054l1.379 1.379v2.703l-.552.565.98.993v2.523l-1.49 1.49H.654V1.663zm5.088 4.04l.497-.496v-1.49l-.483-.482H2.487v2.468h3.254zm.331 4.04l.593-.592V7.8l-.593-.593H2.487v2.537h3.585zm3.888-8.08h1.875v9.652H9.96V1.664zm3.742 0h1.875v4.04h1.462l2.33-4.04h2.11l-2.827 4.812 3.061 4.84h-2.15l-2.538-4.012h-1.448v4.012h-1.875V1.664zm8.359 8.067V3.25l1.586-1.586h4.964l1.585 1.586v6.48l-1.585 1.586h-4.964L22.06 9.731zm5.557-.014l.703-.703V3.967l-.703-.703h-2.979l-.703.703v5.047l.703.703h2.979zm4.236-8.053h1.875v8.067h4.826v1.585h-6.701V1.664zm10.432 0h1.71l3.53 9.652h-1.903l-.786-2.137h-3.392l-.786 2.137h-1.903l3.53-9.652zm2.137 5.97l-1.282-3.667h-.028l-1.24 3.668h2.55zm4.075-5.97h6.053l1.379 1.379v2.703l-.552.565.98.993v2.523l-1.49 1.49h-6.37V1.663zm5.088 4.04l.496-.496v-1.49l-.482-.482h-3.268v2.468h3.254zm.33 4.04l.594-.592V7.8l-.593-.593h-3.585v2.537h3.585zm3.612.083V8.448h1.848v.814l.455.455h2.855l.468-.469v-1.6l-.455-.455h-3.654l-1.489-1.489v-2.55l1.49-1.49h4.357l1.489 1.49v1.392h-1.848v-.827l-.455-.455h-2.73l-.455.455v1.42l.455.455h3.654l1.49 1.49V9.8l-1.518 1.516h-4.467l-1.49-1.489zm9.376 1.49h-.303l-.593-.594v-.882l.593-.593h1.034l.58.607v1.461l-.787 1.848h-1.075l.551-1.848zm6.52-9.653H80.4V3.25h-5.102v2.44h4.703v1.56h-4.703v2.48H80.4v1.585h-6.977V1.664zm8.361 0h1.876v8.067h4.826v1.585h-6.702V1.664zm11.487 0h6.977V3.25h-5.102v2.44h4.702v1.56h-4.702v2.48h5.102v1.585h-6.977V1.664zm8.155 8.163V8.448h1.848v.814l.455.455h2.854l.469-.469v-1.6l-.455-.455h-3.654l-1.489-1.489v-2.55l1.489-1.49h4.357l1.49 1.49v1.392h-1.848v-.827l-.455-.455h-2.73l-.455.455v1.42l.455.455h3.654l1.489 1.49V9.8l-1.517 1.516h-4.467l-1.49-1.489zm10.829-6.577h-2.882V1.664h7.639V3.25h-2.881v8.066h-1.876V3.25zm5.86 6.412V1.664h1.876v7.35l.703.703h2.703l.703-.703v-7.35h1.875v7.998l-1.655 1.654h-4.55l-1.655-1.654zm9.655-7.998h6.178l1.655 1.655v6.343l-1.655 1.654h-6.178V1.664zm5.254 8.053l.703-.703V3.967l-.703-.703h-3.378v6.453h3.378zm4.309-8.053h1.875v9.652h-1.875V1.664zm3.604 8.067V3.25l1.586-1.586h4.964l1.585 1.586v6.48l-1.585 1.586h-4.964l-1.586-1.585zm5.557-.014l.703-.703V3.967l-.703-.703h-2.979l-.703.703v5.047l.703.703h2.979zm7.993 1.448V1.83l1.765-1.765h1.93v1.571h-1.048l-.827.828v8.066l.827.828h1.048v1.572h-1.93l-1.765-1.765zm7.861 1.765v-1.572h1.048l.828-.828V2.464l-.828-.828h-1.048V.065h1.931l1.765 1.765v9.335l-1.765 1.765h-1.931zm9.241-11.266h6.177l1.655 1.655v6.343l-1.655 1.654h-6.177V1.664zm5.253 8.053l.703-.703V3.967l-.703-.703h-3.378v6.453h3.378zm4.24-8.053h6.977V3.25h-5.102v2.44h4.702v1.56h-4.702v2.48h5.102v1.585h-6.977V1.664zm12.119 0h6.054l1.379 1.379v2.703l-.552.565.979.993v2.523l-1.489 1.49h-6.371V1.663zm5.088 4.04l.497-.496v-1.49l-.483-.482h-3.268v2.468h3.254zm.331 4.04l.593-.592V7.8l-.593-.593h-3.585v2.537h3.585zm3.888-8.08h1.875v9.652h-1.875V1.664zm3.742 0h1.875v4.04h1.462l2.33-4.04h2.11l-2.827 4.812 3.061 4.84h-2.151l-2.537-4.012h-1.448v4.012h-1.875V1.664zm8.359 8.067V3.25l1.586-1.586h4.964l1.585 1.586v6.48l-1.585 1.586h-4.964l-1.586-1.585zm5.557-.014l.703-.703V3.967l-.703-.703h-2.979l-.703.703v5.047l.703.703h2.979z" fill="#EB5482"/></svg>