<svg width="200" height="298" viewBox="0 0 200 298" fill="none" xmlns="http://www.w3.org/2000/svg">
<g clip-path="url(#clip0_1_2)">
<path d="M736.059 -288C740.578 -282.979 744.662 -277.106 748.299 -271.424C756.002 -259.387 766.959 -248.2 772.103 -234.802C789.2 -190.269 742.304 -160.735 708.786 -143.825C682.798 -130.715 676.614 -125.358 649.5 -116.116M185.189 44.6809C143.771 67.2138 101.017 93.1126 74.1669 133.152C45.4864 175.921 33 218.023 33 270.384" stroke="#EB5482" stroke-width="3" stroke-linecap="round"/>
<path d="M21 270.915C24.7136 273.435 28.3933 275.96 31.5718 279.138C32.1146 279.681 35.7263 283.973 35.8789 283.706C38.1961 279.651 39.1793 275.083 41.7957 271.09C42.6249 269.824 46.5284 267.469 46.0592 267" stroke="#EB5482" stroke-width="3" stroke-linecap="round"/>
</g>
<defs>
<clipPath id="clip0_1_2">
<rect width="200" height="298" fill="white"/>
</clipPath>
</defs>
</svg>
