<svg width="262" height="266" viewBox="0 0 262 266" fill="none" xmlns="http://www.w3.org/2000/svg">
<g clip-path="url(#clip0_1_2)">
<path d="M178.059 82C182.578 87.0208 186.662 92.8945 190.299 98.5762C198.002 110.613 208.959 121.8 214.103 135.198C231.2 179.731 184.304 209.265 150.786 226.175C124.798 239.285 118.614 244.642 91.5 253.884M-372.811 414.681C-414.229 437.214 -456.983 463.113 -483.833 503.152C-512.514 545.921 -525 588.023 -525 640.384" stroke="#EB5482" stroke-width="3" stroke-linecap="round"/>
<g style="mix-blend-mode:multiply">
<path d="M129.353 32.6818C103.413 27.0875 76.0434 15.7847 51.9591 25.9903C44.0164 29.356 39.2639 36.2665 34.3312 42.5925C32.5945 44.8197 28.4569 47.406 28.6274 50.5508C28.956 56.6118 35.9358 64.0801 39.9963 68.677C54.899 85.5481 88.5217 88.3023 108.546 87.7841C138.81 87.0008 172.685 88.5788 197.762 73.0406C203.887 69.2458 210.69 62.3211 208.316 54.3048C205.038 43.2325 191.62 38.1908 181.515 34.2018C166.502 28.2755 152.74 23.3545 136.705 21.4304C117.159 19.085 98.1692 22.3917 78.9375 23.0254" stroke="#EB5482" stroke-width="3" stroke-linecap="round"/>
</g>
</g>
<defs>
<clipPath id="clip0_1_2">
<rect width="262" height="266" fill="white"/>
</clipPath>
</defs>
</svg>
