<svg width="161" height="48" viewBox="0 0 161 48" fill="none" xmlns="http://www.w3.org/2000/svg">
<path d="M0 41.4148V6.58521L6.58521 0H13.7878V5.86495H9.87781L6.791 8.95177V39.0482L9.87781 42.135H13.7878V48H6.58521L0 41.4148Z" fill="#EB5482"/>
<path d="M20.4582 48V42.135H24.3682L27.455 39.0482V8.95177L24.3682 5.86495H20.4582V0H27.6608L34.246 6.58521V41.4148L27.6608 48H20.4582Z" fill="#EB5482"/>
<path d="M62.206 28.12C61.718 28.12 61.266 27.996 60.85 27.748C60.434 27.492 60.11 27.172 59.878 26.788V28H59.146V19.24H59.962V23.056C60.242 22.632 60.578 22.292 60.97 22.036C61.362 21.772 61.818 21.64 62.338 21.64C62.778 21.64 63.17 21.732 63.514 21.916C63.866 22.1 64.166 22.348 64.414 22.66C64.662 22.964 64.85 23.312 64.978 23.704C65.106 24.088 65.17 24.484 65.17 24.892C65.17 25.332 65.094 25.744 64.942 26.128C64.798 26.512 64.59 26.856 64.318 27.16C64.046 27.456 63.73 27.692 63.37 27.868C63.018 28.036 62.63 28.12 62.206 28.12ZM62.014 27.4C62.35 27.4 62.662 27.332 62.95 27.196C63.238 27.06 63.486 26.872 63.694 26.632C63.902 26.392 64.062 26.124 64.174 25.828C64.286 25.524 64.342 25.212 64.342 24.892C64.342 24.452 64.246 24.04 64.054 23.656C63.87 23.264 63.61 22.952 63.274 22.72C62.946 22.48 62.558 22.36 62.11 22.36C61.79 22.36 61.49 22.432 61.21 22.576C60.938 22.72 60.694 22.912 60.478 23.152C60.27 23.384 60.098 23.64 59.962 23.92V25.864C59.994 26.08 60.078 26.284 60.214 26.476C60.35 26.66 60.518 26.82 60.718 26.956C60.926 27.092 61.142 27.2 61.366 27.28C61.59 27.36 61.806 27.4 62.014 27.4ZM66.7013 29.92C66.8133 29.928 66.9213 29.932 67.0253 29.932C67.1293 29.94 67.2053 29.936 67.2533 29.92C67.3493 29.904 67.4413 29.848 67.5293 29.752C67.6173 29.656 67.7213 29.472 67.8413 29.2C67.9613 28.928 68.1293 28.528 68.3453 28L65.6213 21.748H66.4853L68.7773 27.16L70.8893 21.748H71.7053L68.4653 29.812C68.4093 29.964 68.3253 30.104 68.2133 30.232C68.1013 30.368 67.9613 30.472 67.7933 30.544C67.6333 30.624 67.4333 30.668 67.1933 30.676C67.1213 30.684 67.0453 30.684 66.9653 30.676C66.8933 30.676 66.8053 30.668 66.7013 30.652V29.92Z" fill="#91919E"/>
<path fill-rule="evenodd" clip-rule="evenodd" d="M122.6 22.176C122.139 21.2032 121.696 20.2695 121.02 19.3944C121.024 19.3195 121.163 19.1874 121.367 18.994C121.949 18.4416 123.057 17.3889 123.057 15.7392C123.057 14.4471 122.242 13.155 121.003 12.696C116.759 11.1659 114.161 17.3373 117.913 19.2074L117.998 19.4454C117.652 19.9113 117.069 21.0997 116.606 22.0434C116.275 22.7181 116.005 23.2678 115.927 23.3387C115.842 23.2707 115.757 23.2027 115.689 23.1347C113.465 20.7035 111.14 18.7654 107.626 18.7654C106.879 18.7654 105.436 19.0204 104.706 19.2414C104.418 19.1298 104.212 18.4217 103.956 17.5426C103.471 15.8768 102.806 13.597 101.073 13.597C98.9679 13.597 97.8645 19.0544 97.5759 20.7205C97.4564 21.4221 97.3317 22.1255 97.2068 22.83C96.9413 24.3278 96.6748 25.8309 96.4554 27.3339C96.1668 29.3571 96.065 31.1422 96.8968 32.9953C97.2024 33.6754 98.8491 34.8314 99.596 34.8484C104.4 36.0725 110.63 35.2735 114.79 32.6383C114.842 32.6606 115.021 32.8948 115.234 33.1738C115.508 33.5322 115.838 33.9645 116.029 34.1174C117.998 35.6815 121.427 35.1885 123.396 33.9304C125.128 34.9845 127.81 35.7325 129.525 34.1684C129.597 34.1055 129.688 33.9945 129.789 33.8701C130.043 33.5573 130.366 33.1604 130.645 33.2333L134.363 34.6784C136.237 35.1707 137.347 35.0644 139.05 34.9012C139.229 34.884 139.415 34.8662 139.609 34.8484C139.639 34.8433 140.008 34.9049 140.537 34.9934C141.76 35.1977 143.841 35.5455 144.6 35.5455C148.3 35.5455 153.682 34.4744 155.091 30.5302C156.092 27.776 155.43 24.6308 153.767 22.2166C156.262 22.7266 159.063 20.7205 159.98 18.3234C160.727 16.3682 159.844 14.6681 158.045 13.9031C155.515 12.832 151.509 14.1581 150.439 16.9293C150.134 17.7113 150.134 18.4594 150.337 19.1564C149.302 18.6124 148.131 18.2893 146.908 18.2553C142.919 18.1363 138.658 22.1316 136.926 25.4468C136.621 26.016 136.446 26.5787 136.269 27.151C136.16 27.5018 136.05 27.8562 135.908 28.218C135.885 28.2973 135.832 28.3767 135.78 28.456C135.753 28.4957 135.727 28.5354 135.704 28.575C135.28 28.49 132.309 26.8069 132.309 26.5859C132.309 26.4277 132.979 25.7153 133.793 24.8497C134.816 23.7618 136.067 22.4319 136.502 21.6556C137.504 19.8875 135.534 19.2414 134.601 19.7514C134.589 19.7555 134.422 19.8456 134.155 19.9897C133.296 20.4536 131.402 21.4769 130.289 21.9956C130.162 21.5373 130.006 20.5833 129.886 19.8474C129.846 19.6005 129.809 19.3782 129.779 19.2074C129.559 17.9493 129.27 16.7762 128.795 15.5862C128.455 14.7191 127.759 13.682 126.724 13.682C124.772 13.682 123.855 17.6603 123.6 19.1394C123.582 19.2397 123.552 19.4517 123.514 19.7256C123.369 20.7512 123.102 22.6435 122.887 22.7776C122.789 22.5761 122.695 22.376 122.601 22.1775L122.6 22.176ZM155.759 17.4316C155.71 17.4696 155.661 17.5074 155.613 17.5451C155.554 17.595 155.492 17.644 155.431 17.6929C155.212 17.8681 154.995 18.0419 154.853 18.2479C155.324 18.1952 155.796 18.1425 156.267 18.0722C156.617 18.0195 156.983 18.1425 156.952 18.5114C156.922 18.8628 156.572 19.0736 156.237 19.1439C155.583 19.2493 154.944 19.302 154.32 19.2844C153.985 19.2668 153.742 19.056 153.681 18.7573C153.636 18.5465 153.666 18.3181 153.742 18.0897C153.803 17.8965 153.909 17.7032 154.031 17.5276C154.305 17.1586 154.655 16.86 155.02 16.5613C155.095 16.5121 155.162 16.4542 155.232 16.3938C155.262 16.3679 155.292 16.3416 155.324 16.3153C155.446 16.2099 155.568 16.0694 155.568 15.9288C155.568 15.7531 155.416 15.7004 155.248 15.7356C155.02 15.7821 154.875 15.9381 154.729 16.0949C154.709 16.1156 154.69 16.1367 154.67 16.1572C154.533 16.2802 154.381 16.4032 154.198 16.4559C153.955 16.5262 153.803 16.3856 153.864 16.1748C153.925 16.0167 154.046 15.8586 154.183 15.7356C154.503 15.4194 154.929 15.2085 155.355 15.1031C156.039 14.945 156.8 15.1031 156.906 15.7707C156.952 16.087 156.8 16.4207 156.587 16.6843C156.352 16.9702 156.051 17.2047 155.759 17.4316ZM147.002 24.4695C145.888 24.4695 140.39 29.6532 146.074 29.6532C150.729 29.6532 148.03 24.4695 147.002 24.4695ZM109.533 24.2362C108.28 24.2362 101.637 29.4199 108.451 29.4199C113.858 29.4199 110.786 24.2362 109.533 24.2362Z" fill="#E3E3E7"/>
</svg>
