<svg width="155" height="56" viewBox="0 0 155 56" fill="none" xmlns="http://www.w3.org/2000/svg">
<g filter="url(#filter0_d_2161_11054)">
<path d="M4 41.4148V6.58521L10.5852 0H17.7878V5.86495H13.8778L10.791 8.95177V39.0482L13.8778 42.135H17.7878V48H10.5852L4 41.4148Z" fill="#EB5482"/>
<path d="M24.4582 48V42.135H28.3682L31.455 39.0482V8.95177L28.3682 5.86495H24.4582V0H31.6608L38.246 6.58521V41.4148L31.6608 48H24.4582Z" fill="#EB5482"/>
</g>
<path d="M66.96 27.12C66.472 27.12 66.02 26.996 65.604 26.748C65.188 26.492 64.864 26.172 64.632 25.788V27H63.9V18.24H64.716V22.056C64.996 21.632 65.332 21.292 65.724 21.036C66.116 20.772 66.572 20.64 67.092 20.64C67.532 20.64 67.924 20.732 68.268 20.916C68.62 21.1 68.92 21.348 69.168 21.66C69.416 21.964 69.604 22.312 69.732 22.704C69.86 23.088 69.924 23.484 69.924 23.892C69.924 24.332 69.848 24.744 69.696 25.128C69.552 25.512 69.344 25.856 69.072 26.16C68.8 26.456 68.484 26.692 68.124 26.868C67.772 27.036 67.384 27.12 66.96 27.12ZM66.768 26.4C67.104 26.4 67.416 26.332 67.704 26.196C67.992 26.06 68.24 25.872 68.448 25.632C68.656 25.392 68.816 25.124 68.928 24.828C69.04 24.524 69.096 24.212 69.096 23.892C69.096 23.452 69 23.04 68.808 22.656C68.624 22.264 68.364 21.952 68.028 21.72C67.7 21.48 67.312 21.36 66.864 21.36C66.544 21.36 66.244 21.432 65.964 21.576C65.692 21.72 65.448 21.912 65.232 22.152C65.024 22.384 64.852 22.64 64.716 22.92V24.864C64.748 25.08 64.832 25.284 64.968 25.476C65.104 25.66 65.272 25.82 65.472 25.956C65.68 26.092 65.896 26.2 66.12 26.28C66.344 26.36 66.56 26.4 66.768 26.4ZM71.4553 28.92C71.5673 28.928 71.6753 28.932 71.7793 28.932C71.8833 28.94 71.9593 28.936 72.0073 28.92C72.1033 28.904 72.1953 28.848 72.2833 28.752C72.3713 28.656 72.4753 28.472 72.5953 28.2C72.7153 27.928 72.8833 27.528 73.0993 27L70.3753 20.748H71.2393L73.5313 26.16L75.6433 20.748H76.4593L73.2193 28.812C73.1633 28.964 73.0793 29.104 72.9673 29.232C72.8553 29.368 72.7153 29.472 72.5473 29.544C72.3873 29.624 72.1873 29.668 71.9473 29.676C71.8753 29.684 71.7993 29.684 71.7193 29.676C71.6473 29.676 71.5593 29.668 71.4553 29.652V28.92Z" fill="#91919E"/>
<path fill-rule="evenodd" clip-rule="evenodd" d="M117.354 18.7214C116.893 17.7486 116.45 16.8149 115.774 15.9398C115.778 15.8649 115.917 15.7328 116.121 15.5394C116.703 14.987 117.811 13.9343 117.811 12.2846C117.811 10.9925 116.996 9.70042 115.757 9.24139C111.513 7.71129 108.916 13.8827 112.667 15.7528L112.752 15.9908C112.406 16.4567 111.823 17.6451 111.36 18.5888C111.029 19.2635 110.759 19.8132 110.681 19.8841C110.596 19.8161 110.511 19.7481 110.443 19.6801C108.219 17.2489 105.894 15.3108 102.38 15.3108C101.633 15.3108 100.19 15.5658 99.4598 15.7868C99.1725 15.6752 98.9662 14.9671 98.71 14.088C98.2246 12.4222 97.5604 10.1424 95.827 10.1424C93.7219 10.1424 92.6185 15.5998 92.3299 17.2659C92.2104 17.9675 92.0857 18.6709 91.9608 19.3755C91.6953 20.8732 91.4288 22.3763 91.2095 23.8794C90.9209 25.9025 90.819 27.6876 91.6508 29.5407C91.9564 30.2208 93.6031 31.3769 94.35 31.3939C99.1543 32.6179 105.384 31.8189 109.544 29.1837C109.596 29.206 109.775 29.4402 109.988 29.7193C110.262 30.0776 110.592 30.5099 110.783 30.6628C112.752 32.2269 116.181 31.7339 118.15 30.4758C119.882 31.5299 122.564 32.2779 124.279 30.7138C124.351 30.6509 124.442 30.5399 124.543 30.4155C124.797 30.1027 125.12 29.7058 125.399 29.7788L129.117 31.2238C130.991 31.7162 132.101 31.6098 133.804 31.4466C133.983 31.4294 134.169 31.4116 134.363 31.3939C134.393 31.3887 134.762 31.4503 135.291 31.5388C136.514 31.7431 138.595 32.0909 139.354 32.0909C143.054 32.0909 148.436 31.0198 149.845 27.0756C150.846 24.3214 150.184 21.1762 148.521 18.762C151.016 19.2721 153.817 17.2659 154.734 14.8688C155.481 12.9136 154.598 11.2135 152.799 10.4485C150.269 9.3774 146.263 10.7035 145.193 13.4747C144.888 14.2567 144.888 15.0048 145.092 15.7018C144.056 15.1578 142.885 14.8348 141.662 14.8008C137.673 14.6817 133.412 18.677 131.68 21.9922C131.375 22.5614 131.2 23.1241 131.023 23.6964C130.914 24.0472 130.804 24.4016 130.662 24.7634C130.639 24.8428 130.586 24.9221 130.534 25.0014C130.507 25.0411 130.481 25.0808 130.458 25.1204C130.034 25.0354 127.063 23.3523 127.063 23.1313C127.063 22.9731 127.733 22.2607 128.547 21.3951C129.57 20.3072 130.821 18.9773 131.256 18.201C132.258 16.4329 130.288 15.7868 129.355 16.2969C129.343 16.3009 129.176 16.391 128.909 16.5351C128.05 16.999 126.156 18.0223 125.043 18.541C124.916 18.0827 124.76 17.1287 124.64 16.3928C124.6 16.146 124.563 15.9236 124.533 15.7528C124.313 14.4947 124.024 13.3217 123.549 12.1316C123.209 11.2645 122.513 10.2275 121.478 10.2275C119.526 10.2275 118.609 14.2057 118.354 15.6848C118.336 15.7851 118.306 15.9972 118.268 16.271C118.123 17.2966 117.856 19.1889 117.641 19.3231C117.543 19.1215 117.449 18.9214 117.355 18.7229L117.354 18.7214ZM150.513 13.9771C150.464 14.015 150.415 14.0528 150.367 14.0905C150.308 14.1404 150.246 14.1894 150.185 14.2383C149.966 14.4135 149.749 14.5873 149.607 14.7933C150.078 14.7406 150.55 14.6879 151.022 14.6176C151.371 14.5649 151.737 14.6879 151.706 15.0568C151.676 15.4082 151.326 15.619 150.991 15.6893C150.337 15.7947 149.698 15.8474 149.074 15.8298C148.74 15.8122 148.496 15.6014 148.435 15.3028C148.39 15.0919 148.42 14.8635 148.496 14.6352C148.557 14.4419 148.663 14.2487 148.785 14.073C149.059 13.704 149.409 13.4054 149.774 13.1067C149.849 13.0575 149.916 12.9996 149.986 12.9392C150.016 12.9133 150.046 12.887 150.078 12.8607C150.2 12.7553 150.322 12.6148 150.322 12.4742C150.322 12.2986 150.17 12.2459 150.002 12.281C149.774 12.3275 149.629 12.4835 149.483 12.6403C149.463 12.6611 149.444 12.6821 149.424 12.7026C149.287 12.8256 149.135 12.9486 148.952 13.0013C148.709 13.0716 148.557 12.931 148.618 12.7202C148.679 12.5621 148.8 12.404 148.937 12.281C149.257 11.9648 149.683 11.7539 150.109 11.6485C150.793 11.4904 151.554 11.6485 151.66 12.3161C151.706 12.6324 151.554 12.9662 151.341 13.2297C151.106 13.5156 150.805 13.7501 150.513 13.9771ZM141.756 21.0149C140.642 21.0149 135.144 26.1986 140.828 26.1986C145.483 26.1986 142.784 21.0149 141.756 21.0149ZM104.287 20.7816C103.034 20.7816 96.3907 25.9653 103.205 25.9653C108.613 25.9653 105.54 20.7816 104.287 20.7816Z" fill="#22223C"/>
<defs>
<filter id="filter0_d_2161_11054" x="0" y="0" width="42.246" height="56" filterUnits="userSpaceOnUse" color-interpolation-filters="sRGB">
<feFlood flood-opacity="0" result="BackgroundImageFix"/>
<feColorMatrix in="SourceAlpha" type="matrix" values="0 0 0 0 0 0 0 0 0 0 0 0 0 0 0 0 0 0 127 0" result="hardAlpha"/>
<feOffset dy="4"/>
<feGaussianBlur stdDeviation="2"/>
<feComposite in2="hardAlpha" operator="out"/>
<feColorMatrix type="matrix" values="0 0 0 0 0 0 0 0 0 0 0 0 0 0 0 0 0 0 0.25 0"/>
<feBlend mode="normal" in2="BackgroundImageFix" result="effect1_dropShadow_2161_11054"/>
<feBlend mode="normal" in="SourceGraphic" in2="effect1_dropShadow_2161_11054" result="shape"/>
</filter>
</defs>
</svg>
