<svg width="257" height="291" viewBox="0 0 257 291" fill="none" xmlns="http://www.w3.org/2000/svg">
<g style="mix-blend-mode:multiply">
<path d="M148.939 54.6824C122.998 49.0882 95.6289 37.7854 71.5446 47.991C63.6019 51.3567 58.8495 58.2671 53.9168 64.5931C52.1801 66.8204 48.0425 69.4066 48.213 72.5515C48.5416 78.6124 55.5213 86.0808 59.5819 90.6776C74.4846 107.549 108.107 110.303 128.131 109.785C158.396 109.001 192.27 110.579 217.348 95.0412C223.472 91.2465 230.275 84.3218 227.902 76.3054C224.623 65.2332 211.205 60.1915 201.1 56.2024C186.088 50.2762 172.325 45.3552 156.291 43.4311C136.745 41.0857 117.755 44.3924 98.5231 45.026" stroke="#EB5482" stroke-width="3" stroke-linecap="round" class="svg-elem-1"></path>
<path d="M141.777 113.333C134.266 153.636 131.773 203.311 105.678 237.355C95.3156 250.874 76.9639 255.794 61.7522 262.38C54.8751 265.358 51.5233 271.731 52.8315 264.712" stroke="#EB5482" stroke-width="3" stroke-linecap="round" class="svg-elem-2"></path>
<path d="M51.6121 251.886C50.9908 254.507 46.312 266.034 44.1116 267.446C41.8664 268.888 32.5369 276.344 32.0389 279.016C31.1473 283.8 64.315 279.06 68.5046 279.731" stroke="#EB5482" stroke-width="3" stroke-linecap="round" class="svg-elem-3"></path>
</g>
</svg>
