<svg width="206" height="156" viewBox="0 0 206 156" fill="none" xmlns="http://www.w3.org/2000/svg">
<g style="mix-blend-mode:multiply">
<path d="M113.939 54.6824C87.9983 49.0882 60.6289 37.7854 36.5446 47.991C28.6019 51.3567 23.8494 58.2671 18.9167 64.5931C17.1801 66.8204 13.0424 69.4066 13.2129 72.5515C13.5415 78.6124 20.5213 86.0808 24.5818 90.6776C39.4846 107.549 73.1072 110.303 93.1312 109.785C123.396 109.001 157.27 110.579 182.348 95.0412C188.472 91.2465 195.275 84.3218 192.902 76.3054C189.623 65.2332 176.205 60.1915 166.1 56.2024C151.088 50.2762 137.325 45.3552 121.291 43.4311C101.745 41.0857 82.7547 44.3924 63.523 45.026" stroke="#EB5482" stroke-width="3" stroke-linecap="round"/>
</g>
</svg>
